<?xml version="1.0" encoding="utf-8" standalone="no"?><svg xmlns:android="http://schemas.android.com/apk/res/android" height="885.8267" width="885.8267" xmlns="http://www.w3.org/2000/svg">
    <path android:fillAlpha="1.0" d="M683.4,359.6C678.5,348 641,343.6 630.6,341c-32.3,-7.9 -66.2,-12.6 -98,-22.5 -28.6,-8.9 -58.1,-20.9 -78.9,-43.5 -12.3,-13.3 -23.9,-15 -36.9,-27.3 -4.2,-1.4 -8.4,-2.9 -12.6,-4.7l-3.7,-0.1c-20.8,0 -56.1,3 -57.6,3.2l-59.2,11.7 -0.4,0.3c-23,2.2 -43.7,4.2 -49.9,4.8 -8.8,0.8 -20.3,8.5 -32,18.9 -3.5,6.9 -6.8,14 -10.1,21.2 -3.9,8.4 -8.5,16.7 -13.2,24.9 -1.5,13.7 -5,15.2 -10.6,30 -8.9,23.7 -54.9,71.1 -14.3,83.6 20.7,6.3 40.6,3.3 60.8,0.2 12.4,-1.9 25,-3.8 38,-3.5 25.6,0.7 46.2,18.7 66.1,32.2 42,28.4 85.2,41.5 136.6,33.3 36.4,-5.8 80.8,-0.9 115.3,-11.7 49.2,-15.5 90,-39.8 114.1,-77.7l-0.3,-4.6C684.2,396 688.7,372.5 683.4,359.6" fill="#231f20" fill-opacity="1.0" stroke="#00000000"/>
    <path android:fillAlpha="1.0" d="M365.7,510.1 L342.6,435.4l-60,0L291.2,502.7c0,0 10.6,35.6 7.6,46.4l-20.3,59.8c0,0 -10.9,12.4 -15.1,17.1 -4.3,4.8 -5.6,16.4 -5.6,16.4l30.2,0l12.7,-13.6c0,0 8.8,-3.2 11.5,-9 1.4,-3 6.4,-22.3 10.8,-39.9l42.7,-69.9" fill="#3a2b26" fill-opacity="1.0" stroke="#00000000"/>
    <path android:fillAlpha="1.0" d="m710.6,468.5 l-22.1,-100.6 -12.3,2.1c0,0 -49.6,80.1 -65.4,105.6 -15.8,25.5 -23.8,82.5 -23.8,82.5 -0.1,4.1 27.1,21.9 44.7,32.2l-23.3,52.6l33.9,0l5.3,-16.3 14.5,-16.6 21,-63.9 -14.3,-23.9 41.7,-53.6" fill="#3a2b26" fill-opacity="1.0" stroke="#00000000"/>
    <path android:fillAlpha="1.0" d="m300.7,628.8c0,0 5.1,-1.8 8.7,-5.2L265.6,623.6c4.9,-5.6 12.9,-14.7 12.9,-14.7l20.3,-59.8c0.4,-1.3 0.5,-3 0.5,-5 0,-14 -8.1,-41.4 -8.1,-41.4l-1.7,-13.8 34.6,42.7 16.4,17 0.7,1.5 -18.2,29.8c-4.4,17.6 -9.4,36.9 -10.8,39.9 -2.6,5.8 -11.5,9 -11.5,9" fill="#1f1715" fill-opacity="1.0" stroke="#00000000"/>
    <path android:fillAlpha="1.0" d="M650.2,623.6L616.9,623.6l14.7,-33.3l0,0c-17.6,-10.2 -44.6,-28 -44.7,-32.2 0,-0 0,-0 0,-0 0,0 1.6,-11.7 4.9,-26.8l34.4,5.3c1,2.8 1.7,4.9 2.1,6 0,0 0,0 0,0 0,0 0,0 0,0 0,0 0,0 0,0 0,0 0,0.1 0,0.1 0,0 0,0 0,0 0,0 0,0 0,0 0,0 0,0.1 0,0.1L628.4,542.9c0,0 0,0 0,0 0,0 0,0 0,0 0,0.1 0,0.1 0.1,0.1 0,0 0,0 0,0 0,0.1 0.1,0.1 0.1,0.2l0,0c0,0 0,0 0,0.1 0,0 0,0 0,0l0,0 0,0 0,0 0,0 0,0c5,5.3 26.6,10.8 50.3,15.5l-16.8,51.1 -11.9,13.6" fill="#1f1715" fill-opacity="1.0" stroke="#00000000"/>
    <path android:fillAlpha="1.0" d="m365.1,642.6 l-30.3,-0.1c0,0 -1.3,-2.2 2.3,-9.5 3.6,-7.2 10.3,-20.4 10.3,-20.4l5.1,-72 30,1.7c0,0 4.8,53.6 0.2,72.3l-8.8,11.6 -8.9,16.4" fill="#3a2b26" fill-opacity="1.0" stroke="#00000000"/>
    <path android:fillAlpha="1.0" d="m640.4,538.8 l-97.2,-15c0,0 -122.1,32 -133.5,30.7 -11.3,-1.2 -85.6,-22.9 -85.6,-22.9l-78,-96.1 -50.8,-123.9 94.5,-36.2 54.6,-11c0,0 55,-4.8 67.2,-2.5 12.1,2.4 56.6,30.6 73.3,33.9 16.7,3.3 148.8,7.6 162.2,12.5 13.3,5 63.4,65.7 63.4,65.7L710.6,459l-70.2,79.7" fill="#3a2b26" fill-opacity="1.0" stroke="#00000000"/>
    <path android:fillAlpha="1.0" d="m157.8,362.3c2,-2 4.2,-18.6 6.8,-24.4 2.6,-5.8 54.1,-55.3 70.3,-56.7 16.2,-1.5 129.6,-12.6 129.6,-12.6l-83.5,20.8 56.1,114.5c0,0 -5.5,50.2 -10.7,57.4 -5.2,7.4 -71.5,19.7 -83.9,18.3 -12.4,-1.4 -46.7,-24.8 -55.9,-26.2 -9.2,-1.4 -54.5,9.4 -54.5,9.4 0,0 -9.6,4.1 -14.8,2.6 -5.2,-1.5 -23.7,-29.1 -24.3,-32.9 -0.6,-3.8 13.1,-10.9 13.1,-10.9 0,0 16.7,-25.8 23.1,-32 6.5,-6.1 26.7,-25.2 28.6,-27.2" fill="#3a2b26" fill-opacity="1.0" stroke="#00000000"/>
    <path android:fillAlpha="1.0" d="m362.8,590.3 l-12.3,-19.9 -10,-21.8 -16.4,-17 -32.7,-48 -16.6,-48.2l95.9,0l40.9,83.6 -48.9,71.2" fill="#3a2b26" fill-opacity="1.0" stroke="#00000000"/>
    <path android:fillAlpha="1.0" d="m725.9,543.4l-97.3,0c0,0 -38.9,-110.5 -35.9,-118 3,-7.5 111.8,-60.9 117.9,-51.3 6.1,9.6 15.3,169.3 15.3,169.3" fill="#3a2b26" fill-opacity="1.0" stroke="#00000000"/>
    <path android:fillAlpha="1.0" d="m751.3,570.4c0,0 -110.4,-13.9 -122.7,-27 -1.5,-5 34.8,-60.1 34.8,-60.1l87.8,44.8l0,42.2" fill="#3a2b26" fill-opacity="1.0" stroke="#00000000"/>
    <path android:fillAlpha="1.0" d="m742.4,642.9l-31.8,0c0,0 12.3,-87.1 9,-100.6 -3.3,-13.5 28.4,-16.4 31.8,-14.1 7.1,9.9 6.7,85.1 6.7,85.1l-16.7,15.8 1.1,13.8" fill="#3a2b26" fill-opacity="1.0" stroke="#00000000"/>
    <path android:fillAlpha="1.0" d="m771.4,432.6c-0.7,-0.9 -76.5,-80.7 -143.2,-95.7l3.9,-17.5c72.9,16.3 143.5,104.9 146.5,108.7l-7.2,4.5" fill="#3a2b26" fill-opacity="1.0" stroke="#00000000"/>
    <path android:fillAlpha="1.0" d="m791.6,447.3c6.1,19.5 -12.1,27.1 -12.1,27.1l-27,-63.4l0,-7.5L762.9,410.8c0,0 24.3,22.2 28.7,36.5" fill="#3a2b26" fill-opacity="1.0" stroke="#00000000"/>
    <path android:fillAlpha="1.0" d="m166.1,428.3c0,0 -34.2,-0 -56.5,-37.7 -4.4,-3.1 0.9,-2.4 0.9,-2.4l69.5,25.6L166.1,428.3" fill="#cebca5" fill-opacity="1.0" stroke="#00000000"/>
    <path android:fillAlpha="1.0" d="m183.1,402.6 l-58.9,29.2 11,22.2 58.9,-29.2 -11,-22.2" fill="#3a2b26" fill-opacity="1.0" stroke="#00000000"/>
    <path android:fillAlpha="1.0" d="m340.6,626.2c0.4,-0.9 0.8,-1.7 1.3,-2.6l0,0c-0.4,0.9 -0.9,1.7 -1.3,2.6" fill="#476e73" fill-opacity="1.0" stroke="#00000000"/>
    <path android:fillAlpha="1.0" d="m365.1,642.6 l-30.3,-0.1c0,0 -0.2,-0.4 -0.2,-1.3 0,-1.4 0.5,-3.9 2.5,-8.1 1,-2 2.2,-4.3 3.4,-6.8 0.4,-0.9 0.9,-1.7 1.3,-2.6l0,0c-0.8,1.6 -1.7,3.3 -2.5,4.9 2.4,-1.6 4.7,-3.3 7,-4.9l29.4,0l-1.9,2.6 -8.9,16.4" fill="#2b201c" fill-opacity="1.0" stroke="#00000000"/>
    <path android:fillAlpha="1.0" d="M263.4,626 L265.6,623.6l0,0c-0.8,0.9 -1.6,1.8 -2.2,2.5" fill="#476e73" fill-opacity="1.0" stroke="#00000000"/>
    <path android:fillAlpha="1.0" d="m288,642.4l-30.2,0c0,0 1.4,-11.5 5.6,-16.4l0,0c0.6,-0.7 1.3,-1.5 2.2,-2.5l43.7,0c-3.6,3.4 -8.7,5.2 -8.7,5.2l0,0l-12.7,13.6" fill="#171110" fill-opacity="1.0" stroke="#00000000"/>
    <path android:fillAlpha="1.0" d="m642.3,642.9l-33.9,0 33.9,0l5.3,-16.3 2.6,-3l0.1,0l-2.7,3 -5.3,16.3m-33.9,0 l8.5,-19.3l0,0l-8.5,19.3" fill="#476e73" fill-opacity="1.0" stroke="#00000000"/>
    <path android:fillAlpha="1.0" d="m642.3,642.9l-33.9,0l8.5,-19.3l33.3,0l-2.6,3 -5.3,16.3" fill="#171110" fill-opacity="1.0" stroke="#00000000"/>
    <path android:fillAlpha="1.0" d="m710.6,642.9l0,0 0,0m0,0l0,0 0,0m0,-0l0,0 0,0m0,0c0,0 0,0 0,-0 0,0 0,0 0,0m0,-0c0,0 0,0 0,-0 0,0 0,0 0,0m0,-0l0,0 0,0m0,-0c0,-0 0,-0 0,-0 0,0 0,0 0,0m0,-0.1c0,-0 0,-0 0,-0 0,0 0,0 0,0m0,-0c0.2,-1.3 1.2,-8.8 2.5,-19.1l0,0c-1.3,10.3 -2.4,17.8 -2.6,19.1m30.7,-13.6l0,0l5.8,-5.5l0.1,0l-5.9,5.5" fill="#476e73" fill-opacity="1.0" stroke="#00000000"/>
    <path android:fillAlpha="1.0" d="m742.4,642.9l-31.8,0l0,0 0,0 0,0 0,0c0,0 0,0 0,-0l0,0 0,0c0,0 0,0 0,-0 0,0 0,0 0,-0 0,0 0,0 0,-0l0,0 0,0c0,-0 0,-0 0,-0 0,-0 0,-0 0,-0 0,-0 0,-0.1 0,-0.1 0,-0 0,-0 0,-0l0,0c0.2,-1.3 1.2,-8.8 2.6,-19.1l33.9,0l-5.8,5.5 1.1,13.8" fill="#2b201c" fill-opacity="1.0" stroke="#00000000"/>
    <path android:fillAlpha="1.0" d="m95.7,437.9c-1.6,-2.6 -2.6,-4.6 -2.7,-5.5 -0,-0.1 -0,-0.2 -0,-0.2 0,0.1 0,0.2 0,0.2 0.1,0.8 1.1,2.8 2.7,5.5m10.4,-16.4c0.1,-0.1 6.2,-9.6 12.4,-18.4 0,0 0,0 0,0 -6.3,8.8 -12.4,18.3 -12.4,18.4" fill="#96cbd2" fill-opacity="1.0" stroke="#00000000"/>
    <path android:fillAlpha="1.0" d="M101.1,446.4C99,443.3 97.1,440.3 95.7,437.9c-1.6,-2.6 -2.5,-4.6 -2.7,-5.5 -0,-0.1 -0,-0.2 -0,-0.2 0,-3.8 13.1,-10.7 13.1,-10.7l0,0c0.1,-0.1 6.2,-9.5 12.4,-18.4 8.1,9.6 17,15.5 24.8,19.2L124.1,431.8l1.8,3.7c-2.5,0.9 -5,1.7 -7.6,2.3 -7.1,1.8 -12.7,4.7 -17.2,8.5" fill="#4c3831" fill-opacity="1.0" stroke="#00000000"/>
    <path android:fillAlpha="1.0" d="m125.6,393.7 l-15,-5.5 15,5.5c-0,0 -0,0 -0,0m39.1,-55.8c0.5,-1.2 3.4,-4.5 7.6,-8.8 -4.2,4.4 -7,7.6 -7.6,8.8m18.7,-19.7c1.4,-2.5 2.7,-5 4,-7.4 -1.3,2.5 -2.6,4.9 -3.9,7.3 -0,0 -0.1,0.1 -0.1,0.1m289.8,-26.4c-0.1,-0 -0.2,-0.1 -0.2,-0.1 -4.3,-3 -8.4,-6.2 -12.2,-9.7 3.9,3.5 8.1,6.8 12.5,9.8" fill="#96cbd2" fill-opacity="1.0" stroke="#00000000"/>
    <path android:fillAlpha="1.0" d="m183.5,318.1c1.3,-2.4 2.6,-4.9 3.9,-7.3 1.3,-2.6 2.6,-5.2 3.8,-7.8 3.4,-7.2 6.6,-14.3 10.1,-21.2 11.7,-10.4 23.2,-18.1 32,-18.9 6.2,-0.5 26.9,-2.6 49.9,-4.8l0.4,-0.3 59.2,-11.7c1.5,-0.2 36.7,-3.2 57.6,-3.2l3.7,0.1c4.2,1.8 8.4,3.3 12.6,4.7 13.1,12.3 24.6,14 36.9,27.3 2.2,2.5 4.6,4.8 7.1,7 3.9,3.5 8,6.7 12.2,9.7 -20.3,-8.9 -51.5,-27.8 -61.3,-29.7 -2.4,-0.5 -6.4,-0.6 -11.4,-0.6 -20.2,0 -55.8,3.1 -55.8,3.1l-54.6,11 -1.7,0.6c-24.3,2.4 -46.6,4.5 -53.1,5.2 -10.2,0.9 -34.3,20.8 -51.5,36.9" fill="#2e282a" fill-opacity="1.0" stroke="#00000000"/>
    <path android:fillAlpha="1.0" d="m485,295.9c-3.1,-0.6 -7.1,-2.1 -11.6,-4.1 4.6,2 8.6,3.4 11.6,4.1" fill="#96cbd2" fill-opacity="1.0" stroke="#00000000"/>
    <path android:fillAlpha="1.0" d="m689.1,364.4c-4.7,-1.9 -9.5,-3.7 -14.3,-5.3 -31.3,-10.8 -72.6,-10.5 -104.9,-12.9 -54.7,-3.9 -94,-4.2 -142.3,-32.6 -12.8,-7.5 -31.2,-10.8 -51.4,-10.8 -26.9,0 -56.9,5.9 -81,15.6l-14.1,-28.9 83.5,-20.8c0,0 -40.4,4 -76.5,7.5l1.7,-0.6 54.6,-11c0,0 35.6,-3.1 55.8,-3.1 5,0 9,0.2 11.4,0.6 9.9,1.9 41,20.9 61.3,29.7 0.1,0 0.2,0.1 0.2,0.1l0,0c0,0 0.1,0 0.1,0.1 4.6,2 8.6,3.4 11.6,4.1l0,0c16.7,3.3 148.8,7.6 162.2,12.5 6.2,2.3 20.4,16.8 33.8,31.6 -15.6,-9.4 -32.1,-16.9 -48.8,-20.6l-3.9,17.5c20.2,4.5 41.3,15 60.8,27.5" fill="#4c3831" fill-opacity="1.0" stroke="#00000000"/>
    <path android:fillAlpha="1.0" d="m168.9,409.6 l-43.4,-15.9c0,-0 0,-0 0,-0l0,0 3.6,-4.2c6.5,-6.1 26.7,-25.2 28.6,-27.2 2,-2 4.2,-18.6 6.8,-24.4l0,0c0.6,-1.2 3.4,-4.5 7.6,-8.8 3.1,-3.1 6.9,-6.9 11.1,-10.8 0,-0 0,-0.1 0.1,-0.1 0,-0 0.1,-0.1 0.1,-0.1 17.2,-16.1 41.3,-36 51.5,-36.9 6.5,-0.6 28.8,-2.8 53.1,-5.2 36,-3.5 76.5,-7.5 76.5,-7.5l-83.5,20.8 14.1,28.9c-14.7,5.9 -27.2,13.2 -35.4,21.5 -24.3,24.4 -17.5,63.1 -59.8,65.3 -5.1,0.3 -9.9,1.1 -14.5,2.3L183.1,402.6 168.9,409.6m10.6,-55.5c-2,0 -4.7,0.6 -7.5,2.9 -5.8,4.7 -5.2,9.8 -5.2,9.8 0,0 2.8,1.1 5.3,1.1 0.7,0 1.3,-0.1 1.9,-0.3 6.1,-2.5 8.8,-12.9 8.8,-12.9 0,0 -1.3,-0.6 -3.3,-0.6" fill="#4c3831" fill-opacity="1.0" stroke="#00000000"/>
    <path android:fillAlpha="1.0" d="m117.9,402.4c-2.9,-3.4 -5.7,-7.4 -8.3,-11.8 -0,-0 -0.1,-0 -0.1,-0.1 0,0 0.1,0 0.1,0.1 2.6,4.4 5.4,8.3 8.3,11.8m-8.8,-12.2c-2.3,-1.8 -0.7,-2.1 0.5,-2.1 -1.2,0 -2.8,0.3 -0.5,2.1" fill="#96cbd2" fill-opacity="1.0" stroke="#00000000"/>
    <path android:fillAlpha="1.0" d="m751.7,397.9c-19.7,-13.5 -40.9,-24.8 -62.7,-33.5 -19.5,-12.4 -40.6,-22.9 -60.8,-27.5l3.9,-17.5c16.6,3.7 33.2,11.2 48.8,20.6 0.1,0.1 0.2,0.2 0.3,0.3 27.9,16.8 52.7,39.5 70.5,57.6" fill="#4c3831" fill-opacity="1.0" stroke="#00000000"/>
    <path android:fillAlpha="1.0" d="m143.3,422.3c-7.8,-3.7 -16.6,-9.6 -24.8,-19.2 -0,0 -0,0 -0,0 0,-0 0,-0 0,-0 -0.2,-0.2 -0.4,-0.5 -0.6,-0.7 -2.9,-3.5 -5.7,-7.4 -8.3,-11.8 -0,-0 -0.1,-0 -0.1,-0.1 -0.2,-0.1 -0.3,-0.2 -0.5,-0.4 -2.3,-1.8 -0.7,-2.1 0.5,-2.1l0,0c0.5,0 1,0.1 1,0.1l0,0l15,5.5 43.4,15.9 -25.6,12.7" fill="#ddd0c0" fill-opacity="1.0" stroke="#00000000"/>
    <path android:fillAlpha="1.0" d="M126,435.5 L124.1,431.8l19.2,-9.5 25.6,-12.7 14.2,-7 2.3,4.7c-21.6,5.9 -38.3,20.7 -59.4,28.2" fill="#4c3831" fill-opacity="1.0" stroke="#00000000"/>
    <path android:fillAlpha="1.0" d="m172.1,367.9c-2.4,0 -5.3,-1.1 -5.3,-1.1 0,0 -0.6,-5.1 5.2,-9.8 2.9,-2.3 5.6,-2.9 7.5,-2.9 2,0 3.3,0.6 3.3,0.6 0,0 -2.8,10.4 -8.8,12.9 -0.5,0.2 -1.2,0.3 -1.9,0.3" fill="#35231d" fill-opacity="1.0" stroke="#00000000"/>
    <path android:fillAlpha="1.0" d="m628.6,543.4l0,0 0,0m0,0c0,-0 0,-0 -0,-0 0,0 0,0 0,0m-0,-0.1l0,-0 0,0m-0.1,-0.2c0,-0 0,-0 0,-0 0,0 0,0 0,0m-0.1,-0.2c0,-0 -0,-0 -0,-0 0,0 0,0 0,0m-0,-0.1l0,-0 0,0m-0,-0.1c-0,-0 -0,-0 -0,-0 0,0 0,0 0,0m-0,-0c0,-0 -0,-0.1 -0,-0.1 0,0 0,0.1 0,0.1m-0,-0.1c-0,-0 -0,-0 -0,-0 0,0 0,0 0,0m-0,-0.1c-0.4,-1.1 -1.1,-3.1 -2.1,-6l0,0c1,2.8 1.7,4.9 2.1,6" fill="#281e1b" fill-opacity="1.0" stroke="#00000000"/>
    <path android:fillAlpha="1.0" d="m626.2,536.6l0,0c-3.2,-9.1 -9.1,-26.3 -15.1,-44.4 0,0 0,0 0.1,0 6,18.1 11.9,35.2 15,44.4" fill="#4c3831" fill-opacity="1.0" stroke="#00000000"/>
    <path android:fillAlpha="1.0" d="m628.6,543.4l0,0 0,-0 0,0 0,0c0,-0 0,-0 -0,-0 0,-0 0,-0 0,-0.1l0,-0c-0,-0.1 -0.1,-0.1 -0.1,-0.2 0,-0 0,-0 0,-0 -0,-0 -0.1,-0.1 -0.1,-0.1 0,-0 -0,-0 -0,-0 0,-0 0,-0 0,-0l0,-0c-0,-0 -0,-0.1 -0,-0.1 -0,-0 -0,-0 -0,-0 0,-0 0,-0 0,-0 0,-0 -0,-0.1 -0,-0.1 0,-0 0,-0 0,-0 -0,-0 -0,-0 -0,-0 0,-0 0,-0 0,-0 -0.4,-1.1 -1.1,-3.1 -2.1,-6 -3.2,-9.1 -9.1,-26.2 -15,-44.4 10.9,7 22.4,13.5 33.9,19.9 -8.8,14.2 -17.2,28.8 -16.5,31.3" fill="#4c3831" fill-opacity="1.0" stroke="#00000000"/>
    <path android:fillAlpha="1.0" d="m719.5,564.9c-33.3,-5.3 -83.3,-13.5 -90.8,-21.5l0,0 0,0c-0.7,-2.5 7.7,-17.1 16.5,-31.3 13.3,7.4 26.7,14.6 39.5,22.5 3.8,2.4 24.7,16 34.8,29.7 0,0.2 -0,0.4 -0,0.6" fill="#4c3831" fill-opacity="1.0" stroke="#00000000"/>
    <path android:fillAlpha="1.0" d="m720,565c-0.2,-0 -0.4,-0.1 -0.5,-0.1 0,-0.2 0,-0.4 0,-0.6 0.2,0.2 0.4,0.5 0.5,0.7" fill="#4c3831" fill-opacity="1.0" stroke="#00000000"/>
    <path android:fillAlpha="1.0" d="m347.4,612.5l0,0 0,0" fill="#7db5b9" fill-opacity="1.0" stroke="#00000000"/>
    <path android:fillAlpha="1.0" d="M346.5,623.6L341.9,623.6c2.9,-5.7 5.5,-11 5.5,-11.1l0,0 0,0l3,-42.1 0,0 12.3,19.9 6.3,-9.2c3.2,20.6 -7.6,31.7 -22.6,42.5" fill="#4c3831" fill-opacity="1.0" stroke="#00000000"/>
    <path android:fillAlpha="1.0" d="m362.8,590.3 l-12.3,-19.9 -0,-0 0,-0 -10,-21.8 -16.4,-17 -13.8,-20.3c7.4,4.4 14.9,8.7 22.2,13.3 19.9,12.3 28.5,27.2 34.9,49.1 0.7,2.6 1.3,5.1 1.7,7.5l-6.3,9.2" fill="#4c3831" fill-opacity="1.0" stroke="#00000000"/>
    <path android:fillAlpha="1.0" d="m339.4,628.5c0.8,-1.6 1.6,-3.3 2.5,-4.9l4.6,0c-2.3,1.6 -4.6,3.2 -7,4.9" fill="#382a24" fill-opacity="1.0" stroke="#00000000"/>
</svg>