<?xml version="1.0" encoding="utf-8" standalone="no"?><svg xmlns:android="http://schemas.android.com/apk/res/android" height="885.8267" width="885.8267" xmlns="http://www.w3.org/2000/svg">
    <path android:fillAlpha="1.0" d="M678.7,361.2C673.9,349.8 637.1,345.5 626.9,343c-31.7,-7.8 -64.9,-12.3 -96,-22 -28,-8.8 -57,-20.5 -77.4,-42.7 -12.1,-13 -23.4,-14.7 -36.2,-26.8 -4.1,-1.4 -8.2,-2.9 -12.4,-4.6l-3.6,-0.1c-20.4,0 -55,3 -56.4,3.1l-58,11.5 -0.4,0.3c-22.6,2.1 -42.9,4.1 -48.9,4.7 -8.6,0.8 -19.9,8.3 -31.4,18.5 -3.4,6.8 -6.6,13.8 -9.9,20.8 -3.9,8.3 -8.3,16.4 -13,24.4 -1.5,13.4 -4.9,14.9 -10.4,29.5 -8.7,23.2 -53.8,69.7 -14,82 20.3,6.2 39.8,3.2 59.6,0.2 12.2,-1.9 24.5,-3.7 37.3,-3.4 25.1,0.7 45.3,18.4 64.9,31.6 41.2,27.9 83.6,40.7 133.9,32.6 35.7,-5.7 79.2,-0.8 113.1,-11.5 48.2,-15.2 88.2,-39.1 111.9,-76.1l-0.3,-4.5C679.5,396.9 683.8,373.8 678.7,361.2" fill="#231f20" fill-opacity="1.0" stroke="#00000000"/>
    <path android:fillAlpha="1.0" d="M367.2,508.7 L344.6,435.6l-58.8,0L294.2,501.5c0,0 10.4,34.9 7.5,45.5l-19.9,58.6c0,0 -10.7,12.1 -14.8,16.8 -4.2,4.8 -5.5,16.1 -5.5,16.1l29.6,0l12.5,-13.3c0,0 8.7,-3.1 11.3,-8.8 1.4,-3 6.3,-21.8 10.6,-39.1l41.8,-68.5" fill="#3a2b26" fill-opacity="1.0" stroke="#00000000"/>
    <path android:fillAlpha="1.0" d="m705.3,468 l-21.7,-98.6 -12,2.1c0,0 -48.6,78.5 -64.1,103.5 -15.5,25 -23.4,80.8 -23.4,80.8 -0.1,4 26.5,21.5 43.8,31.6l-22.8,51.6l33.3,0l5.2,-16 14.2,-16.3 20.6,-62.7 -14,-23.5 40.9,-52.5" fill="#3a2b26" fill-opacity="1.0" stroke="#00000000"/>
    <path android:fillAlpha="1.0" d="m303.5,625.2c0,0 5,-1.8 8.5,-5.1L269.1,620c4.8,-5.5 12.7,-14.4 12.7,-14.4l19.9,-58.6c0.3,-1.3 0.5,-3 0.5,-4.9 0,-13.7 -8,-40.6 -8,-40.6l-1.7,-13.5 34,41.8 16.1,16.6 0.7,1.5 -17.9,29.3c-4.3,17.3 -9.2,36.1 -10.6,39.1 -2.6,5.7 -11.3,8.8 -11.3,8.8" fill="#1f1715" fill-opacity="1.0" stroke="#00000000"/>
    <path android:fillAlpha="1.0" d="M646.2,620L613.5,620l14.4,-32.7l0,0c-17.3,-10 -43.8,-27.5 -43.8,-31.5 0,-0 0,-0 0,-0 0,0 1.6,-11.4 4.8,-26.3l33.7,5.2c1,2.8 1.7,4.8 2.1,5.9 0,0 0,0 0,0 0,0 0,0 0,0 0,0 0,0 0,0 0,0 0,0.1 0,0.1 0,0 0,0 0,0 0,0 0,0 0,0 0,0 0,0.1 0,0.1L624.8,540.9c0,0 0,0 0,0 0,0 0,0 0,0 0,0.1 0,0.1 0.1,0.1 0,0 0,0 0,0 0,0.1 0.1,0.1 0.1,0.2l0,0c0,0 0,0 0,0.1 0,0 0,0 0,0l0,0 0,0 0,0 0,0 0,0c4.9,5.2 26.1,10.6 49.3,15.2l-16.5,50.1 -11.6,13.4" fill="#1f1715" fill-opacity="1.0" stroke="#00000000"/>
    <path android:fillAlpha="1.0" d="m366.6,638.7 l-29.7,-0.1c0,0 -1.2,-2.2 2.3,-9.3 3.6,-7.1 10.1,-20 10.1,-20l5,-70.6 29.5,1.7c0,0 4.7,52.6 0.2,70.9l-8.6,11.4 -8.7,16.1" fill="#3a2b26" fill-opacity="1.0" stroke="#00000000"/>
    <path android:fillAlpha="1.0" d="m636.5,536.9 l-95.3,-14.7c0,0 -119.8,31.4 -130.9,30.1 -11.1,-1.2 -83.9,-22.4 -83.9,-22.4l-76.5,-94.2 -49.8,-121.5 92.7,-35.5 53.6,-10.8c0,0 54,-4.7 65.9,-2.4 11.9,2.3 55.5,30 71.9,33.3 16.3,3.2 145.9,7.5 159,12.3 13.1,4.9 62.2,64.5 62.2,64.5L705.3,458.7l-68.8,78.2" fill="#3a2b26" fill-opacity="1.0" stroke="#00000000"/>
    <path android:fillAlpha="1.0" d="m163.4,363.9c2,-2 4.1,-18.3 6.7,-23.9 2.6,-5.6 53,-54.2 68.9,-55.6 15.9,-1.5 127,-12.4 127,-12.4l-81.9,20.4 55,112.2c0,0 -5.4,49.2 -10.5,56.3 -5.1,7.2 -70.1,19.4 -82.3,18 -12.1,-1.4 -45.8,-24.3 -54.8,-25.7 -9,-1.4 -53.4,9.2 -53.4,9.2 0,0 -9.4,4 -14.5,2.5 -5.1,-1.5 -23.3,-28.5 -23.8,-32.2 -0.6,-3.7 12.8,-10.7 12.8,-10.7 0,0 16.4,-25.3 22.7,-31.4 6.4,-6 26.1,-24.7 28,-26.7" fill="#3a2b26" fill-opacity="1.0" stroke="#00000000"/>
    <path android:fillAlpha="1.0" d="m364.3,587.4 l-12,-19.5 -9.8,-21.4 -16.1,-16.6 -32,-47 -16.3,-47.3l94.1,0l40.1,82 -48,69.8" fill="#3a2b26" fill-opacity="1.0" stroke="#00000000"/>
    <path android:fillAlpha="1.0" d="m720.4,541.5l-95.4,0c0,0 -38.2,-108.3 -35.2,-115.7 2.9,-7.3 109.6,-59.7 115.6,-50.3 5.9,9.4 15,166 15,166" fill="#3a2b26" fill-opacity="1.0" stroke="#00000000"/>
    <path android:fillAlpha="1.0" d="m745.3,567.9c0,0 -108.2,-13.7 -120.3,-26.4 -1.5,-4.9 34.2,-58.9 34.2,-58.9l86.1,44l0,41.4" fill="#3a2b26" fill-opacity="1.0" stroke="#00000000"/>
    <path android:fillAlpha="1.0" d="m736.5,639l-31.2,0c0,0 12.1,-85.4 8.8,-98.7 -3.3,-13.3 27.9,-16.1 31.2,-13.8 7,9.7 6.5,83.4 6.5,83.4l-16.4,15.5 1.1,13.6" fill="#3a2b26" fill-opacity="1.0" stroke="#00000000"/>
    <path android:fillAlpha="1.0" d="m765,432.8c-0.7,-0.9 -75,-79.1 -140.4,-93.8l3.9,-17.1c71.5,16 140.7,102.9 143.6,106.5l-7.1,4.4" fill="#3a2b26" fill-opacity="1.0" stroke="#00000000"/>
    <path android:fillAlpha="1.0" d="m784.8,447.2c6,19.1 -11.9,26.6 -11.9,26.6l-26.4,-62.2l0,-7.4L756.6,411.4c0,0 23.8,21.8 28.2,35.8" fill="#3a2b26" fill-opacity="1.0" stroke="#00000000"/>
    <path android:fillAlpha="1.0" d="m188.2,403.4 l-57.8,28.6 10.8,21.8 57.7,-28.6 -10.8,-21.8" fill="#3a2b26" fill-opacity="1.0" stroke="#00000000"/>
    <path android:fillAlpha="1.0" d="m342.6,622.6c0.4,-0.9 0.8,-1.7 1.3,-2.6l0,0c-0.4,0.8 -0.9,1.7 -1.3,2.6" fill="#476e73" fill-opacity="1.0" stroke="#00000000"/>
    <path android:fillAlpha="1.0" d="m366.6,638.7 l-29.7,-0.1c0,0 -0.2,-0.4 -0.2,-1.3 0,-1.3 0.5,-3.8 2.5,-8 1,-1.9 2.1,-4.3 3.3,-6.6 0.4,-0.9 0.9,-1.7 1.3,-2.6l0,0c-0.8,1.6 -1.6,3.2 -2.4,4.8 2.4,-1.6 4.7,-3.2 6.9,-4.8l28.9,0l-1.9,2.5 -8.7,16.1" fill="#2b201c" fill-opacity="1.0" stroke="#00000000"/>
    <path android:fillAlpha="1.0" d="M267,622.5 L269.1,620l0,0c-0.8,0.9 -1.5,1.7 -2.1,2.4" fill="#476e73" fill-opacity="1.0" stroke="#00000000"/>
    <path android:fillAlpha="1.0" d="m291,638.5l-29.6,0c0,0 1.4,-11.3 5.5,-16.1l0,0c0.6,-0.7 1.3,-1.5 2.1,-2.4l42.9,0c-3.5,3.3 -8.5,5.1 -8.5,5.1l0,0l-12.5,13.3" fill="#171110" fill-opacity="1.0" stroke="#00000000"/>
    <path android:fillAlpha="1.0" d="m638.4,639l-33.3,0 33.3,0l5.2,-16 2.6,-2.9l0.1,0l-2.6,2.9 -5.2,16m-33.3,0 l8.3,-18.9l0,0l-8.4,18.9" fill="#476e73" fill-opacity="1.0" stroke="#00000000"/>
    <path android:fillAlpha="1.0" d="m638.4,639l-33.3,0l8.4,-18.9l32.7,0l-2.6,2.9 -5.2,16" fill="#171110" fill-opacity="1.0" stroke="#00000000"/>
    <path android:fillAlpha="1.0" d="m705.3,639l0,0 0,0m0,0l0,0 0,0m0,-0l0,0 0,0m0,0c0,0 0,0 0,-0 0,0 0,0 0,0m0,-0c0,0 0,0 0,-0 0,0 0,0 0,0m0,-0l0,0 0,0m0,-0c0,-0 0,-0 0,-0 0,0 0,0 0,0m0,-0.1c0,-0 0,-0 0,-0 0,0 0,0 0,0m0,-0c0.2,-1.3 1.2,-8.6 2.5,-18.7l0,0c-1.3,10.1 -2.3,17.5 -2.5,18.7m30.1,-13.4l0,0l5.7,-5.4l0.1,0l-5.8,5.4" fill="#476e73" fill-opacity="1.0" stroke="#00000000"/>
    <path android:fillAlpha="1.0" d="m736.5,639l-31.2,0l0,0 0,0 0,0 0,0c0,0 0,0 0,-0l0,0 0,0c0,0 0,0 0,-0 0,0 0,0 0,-0 0,0 0,0 0,-0l0,0 0,0c0,-0 0,-0 0,-0 0,-0 0,-0 0,-0 0,-0 0,-0.1 0,-0.1 0,-0 0,-0 0,-0l0,0c0.2,-1.3 1.2,-8.6 2.5,-18.7l33.3,0l-5.7,5.4 1.1,13.6" fill="#2b201c" fill-opacity="1.0" stroke="#00000000"/>
    <path android:fillAlpha="1.0" d="m102.5,438c-1.5,-2.6 -2.5,-4.5 -2.6,-5.4 -0,-0.1 -0,-0.2 -0,-0.2 0,0.1 0,0.2 0,0.2 0.1,0.8 1.1,2.8 2.6,5.4m10.2,-16.1c0.1,-0.1 6,-9.4 12.2,-18 0,0 0,0 0,0 -6.2,8.7 -12.1,18 -12.2,18" fill="#96cbd2" fill-opacity="1.0" stroke="#00000000"/>
    <path android:fillAlpha="1.0" d="M107.8,446.3C105.8,443.3 103.9,440.4 102.5,438c-1.5,-2.6 -2.5,-4.5 -2.6,-5.4 -0,-0.1 -0,-0.2 -0,-0.2 0,-3.7 12.9,-10.5 12.9,-10.5l0,0c0.1,-0.1 6,-9.4 12.2,-18 8,9.4 16.6,15.2 24.3,18.8L130.4,432l1.8,3.6c-2.4,0.9 -4.9,1.6 -7.5,2.3 -6.9,1.7 -12.4,4.6 -16.9,8.4" fill="#4c3831" fill-opacity="1.0" stroke="#00000000"/>
    <path android:fillAlpha="1.0" d="m188.6,320.5c1.3,-2.4 2.6,-4.8 3.8,-7.2 1.3,-2.5 2.5,-5.1 3.7,-7.6 3.3,-7 6.5,-14 9.9,-20.8 11.5,-10.2 22.8,-17.8 31.4,-18.5 6.1,-0.5 26.4,-2.5 48.9,-4.7l0.4,-0.3 58,-11.5c1.5,-0.2 36,-3.1 56.4,-3.1l3.6,0.1c4.1,1.8 8.3,3.3 12.4,4.6 12.8,12 24.2,13.7 36.2,26.8 2.2,2.4 4.5,4.7 7,6.9 3.8,3.4 7.8,6.6 12,9.5 -19.9,-8.7 -50.5,-27.3 -60.1,-29.1 -2.4,-0.4 -6.3,-0.6 -11.2,-0.6 -19.9,0 -54.7,3 -54.7,3l-53.6,10.8 -1.7,0.6c-23.8,2.3 -45.7,4.5 -52.1,5.1 -10,0.9 -33.6,20.4 -50.5,36.2" fill="#2e282a" fill-opacity="1.0" stroke="#00000000"/>
    <path android:fillAlpha="1.0" d="m484.2,298.8c-3,-0.6 -6.9,-2 -11.4,-4 4.5,1.9 8.4,3.3 11.4,4" fill="#96cbd2" fill-opacity="1.0" stroke="#00000000"/>
    <path android:fillAlpha="1.0" d="m684.2,365.9c-4.7,-1.9 -9.3,-3.6 -14,-5.2 -30.7,-10.6 -71.2,-10.3 -102.8,-12.6 -53.6,-3.8 -92.1,-4.1 -139.6,-32 -12.5,-7.4 -30.6,-10.6 -50.4,-10.6 -26.3,0 -55.8,5.8 -79.4,15.3l-13.9,-28.3 81.9,-20.4c0,0 -39.7,3.9 -75,7.3l1.7,-0.6 53.6,-10.8c0,0 34.9,-3 54.7,-3 4.9,0 8.8,0.2 11.2,0.6 9.7,1.9 40.2,20.5 60.1,29.1 0.1,0 0.2,0.1 0.2,0.1l0,0c0,0 0.1,0 0.1,0.1 4.5,1.9 8.4,3.4 11.4,4l0,0c16.3,3.2 145.9,7.5 159,12.3 6.1,2.3 20,16.4 33.1,31 -15.3,-9.2 -31.5,-16.6 -47.8,-20.2l-3.9,17.1c19.8,4.5 40.5,14.7 59.6,27" fill="#4c3831" fill-opacity="1.0" stroke="#00000000"/>
    <path android:fillAlpha="1.0" d="m174.3,410.3 l-42.5,-15.6c0,-0 0,-0 0,-0l0,0 3.6,-4.1c6.4,-6 26.1,-24.7 28,-26.7 2,-2 4.1,-18.3 6.7,-23.9l0,0c0.6,-1.2 3.3,-4.4 7.5,-8.7 3,-3.1 6.7,-6.7 10.9,-10.6 0,-0 0,-0.1 0.1,-0.1 0,-0 0.1,-0.1 0.1,-0.1 16.8,-15.8 40.5,-35.3 50.5,-36.2 6.4,-0.6 28.3,-2.7 52.1,-5.1 35.3,-3.4 75,-7.3 75,-7.3l-81.9,20.4 13.9,28.3c-14.4,5.8 -26.6,12.9 -34.7,21 -23.8,23.9 -17.1,61.9 -58.6,64 -5,0.3 -9.7,1.1 -14.3,2.3L188.2,403.4 174.3,410.3m10.4,-54.4c-1.9,0 -4.6,0.6 -7.4,2.8 -5.6,4.6 -5.1,9.6 -5.1,9.6 0,0 2.8,1.1 5.2,1.1 0.7,0 1.3,-0.1 1.8,-0.3 6,-2.4 8.7,-12.6 8.7,-12.6 0,0 -1.3,-0.6 -3.2,-0.6" fill="#4c3831" fill-opacity="1.0" stroke="#00000000"/>
    <path android:fillAlpha="1.0" d="m745.7,398.8c-19.3,-13.2 -40.1,-24.3 -61.4,-32.9 -19.2,-12.2 -39.8,-22.5 -59.6,-27l3.9,-17.1c16.3,3.6 32.5,11 47.8,20.2 0.1,0.1 0.2,0.2 0.3,0.3 27.4,16.5 51.7,38.7 69.1,56.5" fill="#4c3831" fill-opacity="1.0" stroke="#00000000"/>
    <path android:fillAlpha="1.0" d="m132.2,435.7c-3.1,-9 -15.7,3.5 -8.4,-30.1l8.4,-11 42.1,15.7 13.9,-6.9 2.3,4.6c-21.2,5.7 -37.6,20.3 -58.3,27.7" fill="#4c3831" fill-opacity="1.0" stroke="#00000000"/>
    <path android:fillAlpha="1.0" d="m177.4,369.4c-2.4,0 -5.2,-1.1 -5.2,-1.1 0,0 -0.6,-5 5.1,-9.6 2.8,-2.3 5.5,-2.8 7.4,-2.8 2,0 3.2,0.6 3.2,0.6 0,0 -2.7,10.2 -8.7,12.6 -0.5,0.2 -1.2,0.3 -1.8,0.3" fill="#35231d" fill-opacity="1.0" stroke="#00000000"/>
    <path android:fillAlpha="1.0" d="m625,541.4l0,0 0,0m0,0c0,-0 0,-0 -0,-0 0,0 0,0 0,0m-0,-0.1l0,-0 0,0m-0.1,-0.2c0,-0 0,-0 0,-0 0,0 0,0 0,0m-0.1,-0.2c0,-0 -0,-0 -0,-0 0,0 0,0 0,0m-0,-0.1l0,-0 0,0m-0,-0.1c-0,-0 -0,-0 -0,-0 0,0 0,0 0,0m-0,-0c0,-0 -0,-0.1 -0,-0.1 0,0 0,0.1 0,0.1m-0,-0.1c-0,-0 -0,-0 -0,-0 0,0 0,0 0,0m-0,-0.1c-0.4,-1.1 -1.1,-3.1 -2.1,-5.9l0,0c1,2.8 1.7,4.8 2.1,5.9" fill="#281e1b" fill-opacity="1.0" stroke="#00000000"/>
    <path android:fillAlpha="1.0" d="m622.7,534.7l0,0c-3.1,-8.9 -8.9,-25.7 -14.8,-43.5 0,0 0,0 0.1,0 5.9,17.8 11.6,34.5 14.7,43.5" fill="#4c3831" fill-opacity="1.0" stroke="#00000000"/>
    <path android:fillAlpha="1.0" d="m625,541.5l0,0 0,-0 0,0 0,0c0,-0 0,-0 -0,-0 0,-0 0,-0 0,-0.1l0,-0c-0,-0.1 -0.1,-0.1 -0.1,-0.2 0,-0 0,-0 0,-0 -0,-0 -0.1,-0.1 -0.1,-0.1 0,-0 -0,-0 -0,-0 0,-0 0,-0 0,-0l0,-0c-0,-0 -0,-0.1 -0,-0.1 -0,-0 -0,-0 -0,-0 0,-0 0,-0 0,-0 0,-0 -0,-0.1 -0,-0.1 0,-0 0,-0 0,-0 -0,-0 -0,-0 -0,-0 0,-0 0,-0 0,-0 -0.4,-1.1 -1.1,-3.1 -2.1,-5.9 -3.1,-8.9 -8.9,-25.7 -14.7,-43.5 10.7,6.9 21.9,13.3 33.3,19.5 -8.6,13.9 -16.9,28.3 -16.2,30.7" fill="#4c3831" fill-opacity="1.0" stroke="#00000000"/>
    <path android:fillAlpha="1.0" d="m714.1,562.5c-32.6,-5.2 -81.7,-13.3 -89,-21.1l0,0 0,0c-0.7,-2.4 7.5,-16.7 16.2,-30.7 13,7.2 26.1,14.3 38.8,22 3.8,2.3 24.2,15.7 34.1,29.1 0,0.2 -0,0.4 -0,0.6" fill="#4c3831" fill-opacity="1.0" stroke="#00000000"/>
    <path android:fillAlpha="1.0" d="m714.6,562.6c-0.2,-0 -0.4,-0.1 -0.5,-0.1 0,-0.2 0,-0.4 0,-0.6 0.2,0.2 0.3,0.4 0.5,0.7" fill="#4c3831" fill-opacity="1.0" stroke="#00000000"/>
    <path android:fillAlpha="1.0" d="m349.3,609.2l0,0 0,0" fill="#7db5b9" fill-opacity="1.0" stroke="#00000000"/>
    <path android:fillAlpha="1.0" d="M348.3,620L343.9,620c2.8,-5.6 5.4,-10.8 5.4,-10.8l0,0 0,0l2.9,-41.3 0,0 12,19.5 6.2,-9c3.2,20.2 -7.5,31.1 -22.2,41.7" fill="#4c3831" fill-opacity="1.0" stroke="#00000000"/>
    <path android:fillAlpha="1.0" d="m364.3,587.4 l-12,-19.5 -0,-0 0,-0 -9.8,-21.4 -16.1,-16.6 -13.6,-19.9c7.3,4.4 14.6,8.5 21.8,13 19.6,12 28,26.7 34.2,48.1 0.7,2.6 1.3,5 1.6,7.3l-6.2,9" fill="#4c3831" fill-opacity="1.0" stroke="#00000000"/>
    <path android:fillAlpha="1.0" d="m341.5,624.8c0.8,-1.6 1.6,-3.2 2.4,-4.8l4.5,0c-2.2,1.6 -4.5,3.2 -6.9,4.8" fill="#382a24" fill-opacity="1.0" stroke="#00000000"/>
</svg>