<?xml version="1.0" encoding="utf-8" standalone="no"?><svg xmlns:android="http://schemas.android.com/apk/res/android" height="885.8267" width="885.8267" xmlns="http://www.w3.org/2000/svg">
    <path android:fillAlpha="1.0" d="m416.4,730.1c0,0 -1.1,2.6 0,0" fill="#a07c64" fill-opacity="1.0" stroke="#00000000"/>
    <path android:fillAlpha="1.0" d="m413,718.1c0,0 -24.1,-84 -27.5,-95.8 -3.4,-11.8 3.2,-48.9 0.5,-57.7l-18.5,-81.1 -67.6,5.9 55.8,88.5 30.4,180.5l30.3,0l-10,-23.8 10,-4.4c1.1,-2.6 -3.4,-12 -3.4,-12" fill="#a07c64" fill-opacity="1.0" stroke="#00000000"/>
    <path android:fillAlpha="1.0" d="m592.8,552.3 l67.2,-130.1c0,0 -127.5,7.9 -140.4,13.4 -12.9,5.5 15.2,126.2 15.2,126.2 0.9,7.2 57.1,75.7 65,85.4 -3.3,35.8 -9,84.5 -9,84.5l0.4,-0.1 -11.5,26.6l38.7,0l5.5,-26.1c0,0 -1.2,-2.6 -3.2,-5.6 3,-0.8 5.1,-1.6 5.6,-2.3 1.8,-3.3 -5.5,-104 -8.6,-109l-24.7,-62.9" fill="#a07c64" fill-opacity="1.0" stroke="#00000000"/>
    <path android:fillAlpha="1.0" d="m415.9,731.2c0,0 0.1,-0.3 0.4,-1 -0.1,0.3 -0.4,1 -0.4,1" fill="#845e47" fill-opacity="1.0" stroke="#00000000"/>
    <path android:fillAlpha="1.0" d="m416.3,730.2l0,-0 0,0" fill="#845e47" fill-opacity="1.0" stroke="#00000000"/>
    <path android:fillAlpha="1.0" d="m416.3,730.2c0,-0 0,-0 0,-0.1 -0,0 -0,0 -0,0.1" fill="#845e47" fill-opacity="1.0" stroke="#00000000"/>
    <path android:fillAlpha="1.0" d="m416.4,730.2c0,-0 0,-0 0,-0 0,0 -0,0 -0,0" fill="#845e47" fill-opacity="1.0" stroke="#00000000"/>
    <path android:fillAlpha="1.0" d="m416.4,730.1l0,-0 0,0" fill="#845e47" fill-opacity="1.0" stroke="#00000000"/>
    <path android:fillAlpha="1.0" d="m416.4,730.1c0,-0 0,-0 0,-0l0,0c-0,0 -0,0 -0,0" fill="#845e47" fill-opacity="1.0" stroke="#00000000"/>
    <path android:fillAlpha="1.0" d="m409,740.6l-25.9,0l-27.4,-162.9 -28.4,-45c9.3,1.1 19,1.6 28.8,1.6 7.5,-0 15.1,-0.3 22.8,-0.8l7.1,31c0.5,1.6 0.7,4.1 0.7,7.2 0,10.5 -2.1,27.7 -2.1,40 0,4.3 0.3,8 1,10.6 3.4,11.8 27.5,95.8 27.5,95.8 0,0 3.6,7.5 3.6,10.9 0,0.4 -0,0.8 -0.2,1.1l0,0l-10,4.4 2.6,6.1" fill="#4d4d4d" fill-opacity="1.0" stroke="#00000000"/>
    <path android:fillAlpha="1.0" d="m416.4,730.1c0,0 -1.1,2.6 0,0" fill="#a07c64" fill-opacity="1.0" stroke="#00000000"/>
    <path android:fillAlpha="1.0" d="m416.4,758.3l-30.3,0l-3,-17.6l0,0l3,17.6l30.3,0m0,0 l-7.4,-17.6l0,0l7.4,17.6" fill="#44736c" fill-opacity="1.0" stroke="#00000000"/>
    <path android:fillAlpha="1.0" d="m416.4,758.3l-30.3,0l-3,-17.6l25.9,0l7.4,17.6" fill="#000000" fill-opacity="1.0" stroke="#00000000"/>
    <path android:fillAlpha="1.0" d="m618.3,758.3 l3.7,-17.6l-34.7,0l3.9,-8.9 -0.4,0.1c0,0 5.7,-48.7 9,-84.5l0,0 0,0c-7.9,-9.7 -64.1,-78.2 -65,-85.4 0,0 -5.9,-25.2 -11,-53.1 7.4,-1.3 13.5,-2.1 17.8,-2.1 1.7,0 3.2,0.1 4.3,0.4 6.6,1.5 14.1,3 21.9,4.6 4.5,10.1 9.2,20.6 13.6,30 9.2,20.1 16.8,35.9 16.8,35.9l0,0 0,0c0,0 0,0 0,0l0,0c0,0 0,0 0,0 0.2,0.4 0.7,1 1.5,1.7l0,0c0,0 0,0 0,0 0,0 0,0 0,0 0,0 0,0 0,0 0,0 0,0 0,0l0,0c0,0 0,0 0,0.1l0,0c1.2,1.1 2.9,2.4 5.1,3.9l12.5,31.8c2.8,4.5 8.9,85.4 8.9,104.9 -0,2.3 -0.1,3.8 -0.3,4.1 -0.4,0.7 -2.6,1.5 -5.6,2.3l0,0 0,0c2,3 3.2,5.6 3.2,5.6l-5.5,26.1" fill="#4d4d4d" fill-opacity="1.0" stroke="#00000000"/>
    <path android:fillAlpha="1.0" d="m546,507c-9.8,-2.3 -40.5,5.6 -79,13.5 -48.4,9.9 -109.1,19.8 -155.9,9.5 -27.3,-10.7 -46.4,-23 -46.4,-23 0,0 -78.3,-62.4 -76.9,-76.1 1.4,-13.6 51.3,-76.2 51.3,-76.2 0,0 44.4,-11.3 69.6,-11.5 25.3,-0.2 104.3,35.1 131.7,35.2 7.5,1.6 129.7,-10.5 129.7,-10.5 0,0 47.1,-2.7 59.2,-1.9 12,0.8 44.9,12.7 44.9,12.7l27.2,38.9 -30.9,76.4c0,0 -38.3,37.3 -53.9,30 -15.6,-7.1 -48.4,-12.1 -70.5,-17.1" fill="#666666" fill-opacity="1.0" stroke="#00000000"/>
    <path android:fillAlpha="1.0" d="m308.7,343.3 l-120.9,87.7c0,0 -8.8,-9 -3.6,-16.6 -0.9,-4.6 -3.2,-30.2 -4.8,-37.2 15.7,-36.9 9.5,-93 4.4,-101.4 52.6,-8.9 94.9,-4.6 95.5,17.3 -4.5,8.8 7.8,22.1 19.8,33.7 12,11.6 47.6,29.4 53.7,31.4 6.1,2 -44.1,-14.8 -44.1,-14.8" fill="#666666" fill-opacity="1.0" stroke="#00000000"/>
    <path android:fillAlpha="1.0" d="m762.1,725.7c0.4,-5 -57.9,-124.6 -57.9,-124.6l-45,-44.4c13.5,-43.4 43.9,-104.4 42.1,-138.9 -4,-9.7 -152.8,31.6 -153.1,43 -0.2,11.4 49.9,116.8 49.9,116.8 3.2,7.4 92.6,54.4 102.3,59.5 7,25.7 16.6,65.5 21.2,85l-17,36.3l41.8,0l5.9,-26.1 -0.4,-2.2c5.7,-1.2 10,-2.7 10.1,-4.3" fill="#666666" fill-opacity="1.0" stroke="#00000000"/>
    <path android:fillAlpha="1.0" d="m327.8,721.6c0,0 -14.7,-88.8 -16.1,-97.6 -1.5,-8.8 9.3,-47.7 8,-57.4l-8.7,-82.3l-70.9,0l46.4,92.8 8.2,181.1l33.7,0l-8,-21.9c0,0 8.8,1.1 9.4,-2.5 0.6,-3.6 -2,-12.2 -2,-12.2" fill="#666666" fill-opacity="1.0" stroke="#00000000"/>
    <path android:fillAlpha="1.0" d="m729.1,436.6c0,0 -70,-19.6 -73.1,-28.6 -3.1,-9 18.1,-29.2 18.1,-29.2 0,0 18.4,8.9 32.6,18.1 14.2,9.2 22.3,39.7 22.3,39.7" fill="#b3b3b3" fill-opacity="1.0" stroke="#00000000"/>
    <path android:fillAlpha="1.0" d="m319.1,160.2c-0.7,-0.2 -1.3,-0.3 -1.9,-0.4 0.6,0.1 1.3,0.3 1.9,0.4" fill="#a3978f" fill-opacity="1.0" stroke="#00000000"/>
    <path android:fillAlpha="1.0" d="m352.7,154.1c17.6,-4.6 37.6,-7.9 37.8,-7.9 -0.3,0.1 -20.2,3.3 -37.8,7.9m37.8,-7.9l0,0 0,0" fill="#90c8cf" fill-opacity="1.0" stroke="#00000000"/>
    <path android:fillAlpha="1.0" d="m200.1,308c3.2,-5.1 21.4,-22.9 41.7,-42 -20.2,19.1 -38.4,36.9 -41.7,42m65.6,-64.4c1.4,-1.3 2.8,-2.6 4.2,-3.9l0,0c-1.4,1.3 -2.8,2.6 -4.2,3.9" fill="#90c8cf" fill-opacity="1.0" stroke="#00000000"/>
    <path android:fillAlpha="1.0" d="m199.7,449c-7.3,-7.9 -12.3,-14.6 -11.9,-18l0,0 0,0 0,0l9.2,-6.7c0.1,8.2 1,16.5 2.7,24.7" fill="#808080" fill-opacity="1.0" stroke="#00000000"/>
    <path android:fillAlpha="1.0" d="m187.8,431 l0,0c0,0 -0.1,-3.3 -0.1,-8 0,-10.1 0.6,-26.8 4.1,-32l0,0 0,0c-0.9,-4.6 -10.7,-6.8 -12.4,-13.8 -0.1,-0.4 -0.1,-0.8 -0.1,-1.4 0.1,-29.3 0.4,-53.6 7.7,-80.8 39.4,-26.9 -13.4,-1.5 60.4,-6.8 -9.1,36.1 -16.9,48 -36,80.9 -10.5,18 -14.7,36.6 -14.4,55.2l-9.2,6.7" fill="#808080" fill-opacity="1.0" stroke="#00000000"/>
    <path android:fillAlpha="1.0" d="m728,432.9c-0,-0 -0,-0 -0,-0 -2.6,-8.2 -9.7,-27.7 -20.4,-35.3 10.7,7.7 17.8,27.2 20.4,35.3m-285.1,-54.2l0,0 0,0 0,0m-2.7,-0.1c-0,0 -0,0 -0.1,0 0,0 0,0 0.1,0m-0.1,0c-3,-0 -6.6,-0.5 -10.7,-1.2 4.1,0.8 7.7,1.2 10.7,1.2m-10.8,-1.3c-0,-0 -0.1,-0 -0.1,-0 0,0 0,0 0.1,0m-0.3,-0.1l-0,0c0,0 0,0 0,0m193.9,-11.2l-0,0l0,0l0,0m-269.7,-12c-3.8,-1.2 -7.5,-2.4 -11.1,-3.5 -4.8,-4 -10.2,-9.1 -14.5,-13.9 0,-0 -0,-0.1 -0,-0.1 4.4,4.9 9.9,10 14.7,14.1 3.5,1.1 7.2,2.2 10.9,3.5" fill="#90c8cf" fill-opacity="1.0" stroke="#00000000"/>
    <path android:fillAlpha="1.0" d="m484.4,403.7c-26.3,0 -52.7,-4.8 -78.2,-9.7 -41.3,-7.9 -66.1,-22.7 -75.1,-43.1 1.6,-0.8 -0.6,-0.6 3,-0.7 2.2,-2.5 15.2,2.6 19,3.9 26.1,8.5 56.2,19.4 75.8,23.2l0,0c0,0 0.1,0 0.2,0 0,0 0.1,0 0.1,0 0,0 0,0 0.1,0 4.1,0.8 7.7,1.2 10.7,1.2 0,0 0,0 0,0 0,0 0,0 0.1,0 0,0 0.1,0 0.1,0 0.5,0.1 1.3,0.1 2.6,0.1l0,0 0,0 0,0c19.3,0 127.1,-10.6 127.1,-10.6 0,0 35.6,-2 52.8,-2l0,0c2.6,0 4.8,0.1 6.3,0.2 12,0.8 44.9,12.7 44.9,12.7 0,0 -12.9,12.3 -17.1,22 -15.8,-2.8 -32.5,-3.8 -49.4,-3.8 -38.5,0 -78.7,5.1 -115.7,6.4 -2.5,0.1 -5,0.1 -7.6,0.1" fill="#333333" fill-opacity="1.0" stroke="#00000000"/>
    <path android:fillAlpha="1.0" d="m707.6,397.5c-0,-0 -0,-0 -0,-0 0,0 0,0 0,0m-0.1,-0.1c-0,0 -0,-0 -0,-0 0,0 0,0 0,0m-0.2,-0.1l0,0 0,0m-0,-0l0,0 0,0m-0.3,-0.2 l-0,-0 0,0m-0,-0c-0,-0 -0,-0 -0,-0 0,0 0,0 0,0m-0.1,-0c-0,-0 -0,-0 -0.1,-0 0,0 0,0 0.1,0" fill="#90c8cf" fill-opacity="1.0" stroke="#00000000"/>
    <path android:fillAlpha="1.0" d="m728,432.9c-20.2,-17.9 -44.5,-27.4 -71,-32 4.2,-9.7 17.1,-22 17.1,-22l0,0c0,0 18.4,8.9 32.6,18.1l0,0c0,0 0,0 0.1,0 0,0 0,0 0,0 0,0 0,0 0,0 0,0 0,0 0,0l0,0c0.1,0.1 0.2,0.1 0.3,0.2l0,0c0,0 0,0 0,0l0,0c0.1,0 0.1,0.1 0.2,0.1 0,0 0,0 0,0 0,0 0,0 0,0 0,0 0,0 0,0 0,0 0,0 0,0 10.7,7.6 17.8,27.1 20.4,35.3" fill="#333333" fill-opacity="1.0" stroke="#00000000"/>
    <path android:fillAlpha="1.0" d="m292.1,702.2 l-5.6,-125.1 -33.5,-67.1c-2.7,-5.3 -7.9,-14.5 -12.9,-23.5 0.7,0.6 1.3,1.1 2,1.7l44.4,88.9 5.6,125c0,0 0,0 -0,0.1" fill="#90c8cf" fill-opacity="1.0" stroke="#00000000"/>
    <path android:fillAlpha="1.0" d="m242,488.3c-0.7,-0.5 -1.3,-1.1 -2,-1.7 -2.7,-4.9 -5.3,-9.7 -7.5,-13.8 3.6,4 7.4,7.8 11.4,11.5l-3.9,0l2,4" fill="#808080" fill-opacity="1.0" stroke="#00000000"/>
    <path android:fillAlpha="1.0" d="m292.1,702.1 l-5.6,-125 -44.4,-88.9 -2,-4l3.9,0c5.9,5.5 12.2,10.8 18.4,16.1 8.3,10.7 16.5,21.7 22.6,33.9 26.3,53.2 18,115.7 7.1,167.8" fill="#808080" fill-opacity="1.0" stroke="#00000000"/>
    <path android:fillAlpha="1.0" d="m649.7,609.7c-13.5,-7.4 -27,-15.1 -36.8,-21.2 9.8,6.1 23.3,13.8 36.8,21.2m-36.8,-21.2c-0,-0 -0,-0 -0.1,-0.1 0,0 0,0 0.1,0.1" fill="#90c8cf" fill-opacity="1.0" stroke="#00000000"/>
    <path android:fillAlpha="1.0" d="m599.9,579.5l0,0 0,0m-0,-0.1l0,0 0,0m-0,-0c-0,0 -0,-0 -0,-0 0,0 0,0 0,0m-0,-0c-0,-0 -0,-0 -0,-0 0,0 0,0 0,0m-0,-0.1c-0.8,-0.7 -1.3,-1.3 -1.5,-1.7 0.2,0.4 0.7,1 1.5,1.7m-1.5,-1.7l0,-0 0,0m-16.8,-36c-4.4,-9.5 -9.1,-19.9 -13.6,-30 0,0 0,0 0,0 4.5,10.1 9.2,20.5 13.6,30" fill="#a37659" fill-opacity="1.0" stroke="#00000000"/>
    <path android:fillAlpha="1.0" d="m567.9,511.6c-0,0 -0,-0 -0,-0l0,0l-1,-0.2c-0.3,-1.4 -0.6,-2.7 -0.9,-4.1 0.6,1.4 1.3,2.9 1.9,4.3m0.4,-62.4c0.1,-0.4 0.3,-0.7 0.4,-1.1 0,0.3 0.1,0.6 0.2,0.8 -0.2,0.1 -0.4,0.2 -0.6,0.2" fill="#b89b7d" fill-opacity="1.0" stroke="#00000000"/>
    <path android:fillAlpha="1.0" d="m683.1,627.8c-9.4,-5 -21.4,-11.5 -33.5,-18.1 -13.5,-7.5 -27,-15.1 -36.8,-21.2 0,0 -0,-0 -0,-0 -0,-0 -0,-0 -0.1,-0.1 -6,-3.7 -10.5,-6.8 -12.9,-8.9l0,0c-0,-0 -0,-0 -0,-0.1l0,0c-0,-0 -0,-0 -0,-0.1 -0,0 -0,-0 -0,-0 -0,-0 -0,-0 -0,-0 -0,-0 -0,-0 -0,-0l-0,-0c-0.8,-0.7 -1.3,-1.3 -1.5,-1.7 0,0 -0,0 -0,-0l0,-0c-0,-0 -0,-0 -0,-0l0,0 0,0c0,0 -7.5,-15.9 -16.8,-35.9 -4.4,-9.5 -9.1,-19.9 -13.6,-30 -0.6,-1.4 -1.3,-2.9 -1.9,-4.3 -4,-19.4 -4.5,-39.1 2.3,-58.1 0.2,-0.1 0.4,-0.2 0.6,-0.2 9.6,42.7 35.6,88.4 60.4,124.7 15.1,22.2 36.8,35.2 53.9,54.2" fill="#808080" fill-opacity="1.0" stroke="#00000000"/>
    <path android:fillAlpha="1.0" d="m328.3,758.3l-33.7,0l-0.8,-17.6l0,0l0.8,17.6l33.7,0" fill="#44736c" fill-opacity="1.0" stroke="#00000000"/>
    <path android:fillAlpha="1.0" d="m328.3,758.3l-33.7,0l-0.8,-17.6l28.1,0l6.4,17.6" fill="#000000" fill-opacity="1.0" stroke="#00000000"/>
    <path android:fillAlpha="1.0" d="m579.6,758.3 l7.6,-17.6l0,0l-7.6,17.6" fill="#44736c" fill-opacity="1.0" stroke="#00000000"/>
    <path android:fillAlpha="1.0" d="m618.3,758.3l-38.7,0l7.6,-17.6l34.7,0l-3.7,17.6" fill="#000000" fill-opacity="1.0" stroke="#00000000"/>
    <path android:fillAlpha="1.0" d="m746.5,758.3l-41.8,0 41.8,0l4,-17.6l0,0l-4,17.6" fill="#44736c" fill-opacity="1.0" stroke="#00000000"/>
    <path android:fillAlpha="1.0" d="m746.5,758.3l-41.8,0l8.3,-17.6l37.5,0l-4,17.6" fill="#000000" fill-opacity="1.0" stroke="#00000000"/>
    <path android:fillAlpha="1.0" d="m282.2,308.4c-20.5,-0.5 -41.2,-4.1 -57,3.1 -2.6,1.2 -33.8,-10.8 -40.1,-9.3 -2.8,-10 -2,-20.3 -2.5,-28.4 31.6,-13.4 59.6,-17.3 89.9,-18.4 3.7,0.8 6.8,26.1 6.8,26.1" fill="#e6e6e6" fill-opacity="1.0" stroke="#00000000"/>
    <path android:fillAlpha="1.0" d="m273.4,274.5c0,0 -104.7,2.7 -100.6,3.4 4.2,0.7 -28.9,-2.7 -32.5,-3.2 -3.5,-0.4 -6.2,-7 -6.2,-7l-4,-0.8 -4.2,-8.3c0,0 -4,-4.9 -1.1,-7.7 2.8,-2.7 59.9,-18.3 59.9,-18.3 0,0 5.9,-9.9 12.5,-11.3 6.6,-1.5 37.6,-8.2 37.6,-8.2 0,0 24,-4.3 29.3,-3.1 5.2,1.2 13.9,3.1 13.9,3.1" fill="#e6e6e6" fill-opacity="1.0" stroke="#00000000"/>
    <path android:fillAlpha="1.0" d="m128.6,264 l-2.7,-5.3c0,0 -2.2,-2.7 -2.2,-5.2 0,-0.9 0.3,-1.8 1,-2.5 2.8,-2.7 59.9,-18.3 59.9,-18.3 0,0 5.9,-9.9 12.5,-11.3 6.6,-1.5 37.6,-8.2 37.6,-8.2 0,0 18.6,-3.3 26.7,-3.3l0,0c1.1,0 2,0.1 2.6,0.2l0,0c0.6,0.1 1.2,0.3 1.9,0.4 3.8,0.9 8.4,1.9 10.6,2.4 -1.3,0.9 -2.3,1.7 -2.8,2.6 -3.1,5.2 -2.5,8.5 -1.3,10.4 -1.7,0.1 -3.4,0.3 -5.2,0.5 -12.1,1.8 -22.4,7.3 -33.9,10.7 -8,2.4 -16.5,3.5 -24.4,5.8 -27.3,5.7 -54.1,14.5 -80.4,21.1m77.8,-35.4c-1.6,0 -3.7,0.3 -5.9,1.4 -5.9,2.8 -6.1,6.6 -6.1,6.6l6.4,1.4c6,-1.1 10,-8.4 10,-8.4 0,0 -1.7,-0.9 -4.4,-0.9" fill="#e6e6e6" fill-opacity="1.0" stroke="#00000000"/>
    <path android:fillAlpha="1.0" d="m275.5,216.7c-7.6,1 -15,3 -21.7,6.5 -1.1,0.6 -2.1,1.1 -3.2,1.8 -2.3,-1.1 -5.1,-3.5 -6,-9.2 -0.2,-1 0,-2.1 0.6,-3.4 0,-0 0,-0 0.1,-0 1.7,-4.6 7.1,-10.9 13.4,-17.2 11.5,-11.6 26,-23 26.2,-23.2l0,0 0,0 0,0l1.9,1.2c17.2,20.8 3.4,35.2 -11.3,43.6" fill="#4d4d4d" fill-opacity="1.0" stroke="#00000000"/>
    <path android:fillAlpha="1.0" d="m248.8,229.3c0,0 -7.7,-1.5 -5.2,-12 2.5,-10.4 55.6,-31.4 55.6,-31.4l1.3,1.6c13.9,41.2 -51.7,41.7 -51.7,41.7" fill="#000000" fill-opacity="1.0" stroke="#00000000"/>
    <path android:fillAlpha="1.0" d="m132.3,267.7c0,0 76.7,-15.8 99.8,-26.6C237.6,238.4 233.7,218.3 228.5,221.3 207.8,233.2 123.7,255.6 123.7,255.6z" fill="#4d4d4d" fill-opacity="1.0" stroke="#00000000"/>
    <path android:fillAlpha="1.0" d="m207.6,239.8 l-6.4,-1.4c0,0 0.1,-3.8 6.1,-6.6 2.2,-1.1 4.2,-1.4 5.9,-1.4 2.7,0 4.4,0.9 4.4,0.9 0,0 -4,7.3 -10,8.4" fill="#000000" fill-opacity="1.0" stroke="#00000000"/>
    <path android:fillAlpha="1.0" d="m210.9,220.8 l14.6,-5.1c0,0 -30.7,-58.3 -8.2,-76.4 5,-4.1 15.4,-1.8 21.4,1.3 4.9,2.6 8.3,12.5 8.3,12.5 0,0 1.5,-11.6 -2,-16.3 -3.5,-4.7 -10.1,-8.8 -16.9,-9.2 -7.4,-0.5 -16.4,2.2 -20.3,7.2 -19.1,24.3 3.2,86 3.2,86z" fill="#333333" fill-opacity="1.0" stroke="#00000000"/>
    <path android:fillAlpha="1.0" d="m209.8,220.2 l15.6,-2.4c0,0 -13.9,-62.2 13,-76 6,-3.1 15.5,1 20.5,5.1 4.1,3.4 4.7,13.6 4.7,13.6 0,0 4.6,-11 2.6,-16.2 -2.1,-5.2 -7.5,-10.3 -14,-12 -7.1,-1.8 -16.6,-0.7 -21.8,3.5 -25.3,20.3 -20.6,84.4 -20.6,84.4z" fill="#000000" fill-opacity="1.0" stroke="#00000000"/>
</svg>