<?xml version="1.0" encoding="UTF-8" standalone="no"?>
<svg
   xmlns:dc="http://purl.org/dc/elements/1.1/"
   xmlns:cc="http://creativecommons.org/ns#"
   xmlns:rdf="http://www.w3.org/1999/02/22-rdf-syntax-ns#"
   xmlns:svg="http://www.w3.org/2000/svg"
   xmlns="http://www.w3.org/2000/svg"
   xmlns:sodipodi="http://sodipodi.sourceforge.net/DTD/sodipodi-0.dtd"
   xmlns:inkscape="http://www.inkscape.org/namespaces/inkscape"
   height="885.8267"
   width="885.8267"
   version="1.1"
   id="svg6850"
   sodipodi:docname="ic_duck_m.svg"
   inkscape:version="0.92.4 5da689c313, 2019-01-14"
   inkscape:export-filename="/home/tstauber/git/stautob/butchershoplabelprinter/resources/images/ic_duck_m.png"
   inkscape:export-xdpi="32.512001"
   inkscape:export-ydpi="32.512001">
  <metadata
     id="metadata6856">
    <rdf:RDF>
      <cc:Work
         rdf:about="">
        <dc:format>image/svg+xml</dc:format>
        <dc:type
           rdf:resource="http://purl.org/dc/dcmitype/StillImage" />
        <dc:title></dc:title>
      </cc:Work>
    </rdf:RDF>
  </metadata>
  <defs
     id="defs6854" />
  <sodipodi:namedview
     pagecolor="#ffffff"
     bordercolor="#666666"
     borderopacity="1"
     objecttolerance="10"
     gridtolerance="10"
     guidetolerance="10"
     inkscape:pageopacity="0"
     inkscape:pageshadow="2"
     inkscape:window-width="1600"
     inkscape:window-height="851"
     id="namedview6852"
     showgrid="false"
     inkscape:zoom="0.65563754"
     inkscape:cx="442.91336"
     inkscape:cy="442.91336"
     inkscape:window-x="0"
     inkscape:window-y="0"
     inkscape:window-maximized="1"
     inkscape:current-layer="svg6850" />
  <g
     transform="matrix(4.6414157,0,0,4.6414157,147.49663,-671.26727)"
     id="g6579"
     style="stroke-width:0.81430489">
    <path
       sodipodi:nodetypes="cccccccsccccccc"
       inkscape:connector-curvature="0"
       id="path6529"
       d="m 29.600723,247.8425 c -1.339538,-2.0744 -3.072037,-3.67908 -1.522775,-9.5381 0.689223,-2.23014 2.569808,-2.33956 3.139286,-3.96926 0.525591,0.48596 0.592926,1.20104 2.188663,1.15193 0.341191,0.14622 2.911819,-0.18798 3.378985,-0.19199 12.213543,0.65082 21.557808,6.78952 24.344067,10.48254 0.928662,0.37035 6.196152,3.15577 6.719577,2.49585 0,0 -0.486351,0.8797 -0.89905,1.12477 -0.297132,0.17644 -1.02083,0.18074 -1.02083,0.18074 l 1.843085,0.69116 c -1.062333,1.17246 -2.314724,0.83158 -3.377057,0.67525 0.535907,0.66315 0.803654,1.30423 0.919612,1.89739 -1.404758,0.39127 -2.629588,-0.47696 -3.898558,-1.0362 l -8.023175,-1.1675 z"
       style="fill:#252423;fill-opacity:1;fill-rule:evenodd;stroke:#000000;stroke-width:0;stroke-linecap:butt;stroke-linejoin:miter;stroke-miterlimit:4;stroke-dasharray:none;stroke-opacity:1" />
    <path
       sodipodi:nodetypes="ccscccssccc"
       inkscape:connector-curvature="0"
       id="path6523"
       d="m 50.595979,254.79321 c -0.585741,2.69247 -0.863036,4.7462 0.386139,6.878 0.581546,1.16267 -0.311601,1.50535 -0.929162,1.51171 -2.840208,0.0292 -6.29703,-0.41131 -8.172508,0.35297 0.257929,-0.66575 0.668879,-1.36396 -0.705932,-1.68337 0.155655,-0.43197 0.368846,-0.85777 -0.868836,-1.43902 0,0 0.745688,-0.0793 1.113197,-0.0272 2.053548,0.29085 5.445357,1.02094 5.728901,1.0589 0.969855,0.12984 1.030193,-0.0602 1.167503,-0.29866 0.124263,-1.84628 0.135494,-3.69257 -0.298664,-5.53885 z"
       style="fill:#f77c43;fill-opacity:1;fill-rule:evenodd;stroke:#000000;stroke-width:0;stroke-linecap:butt;stroke-linejoin:miter;stroke-miterlimit:4;stroke-dasharray:none;stroke-opacity:1" />
    <path
       sodipodi:nodetypes="ccscccasscc"
       inkscape:connector-curvature="0"
       id="path6525"
       d="m 46.25179,255.03757 c -0.07337,1.59384 0.227354,2.81358 0.841688,3.71971 0.27114,0.45088 -0.418176,1.12066 -0.950294,1.12677 -2.450377,0.0281 -4.838735,-0.13133 -7.059308,0.25794 0.573611,-1.17009 -0.15789,-1.24557 -0.651629,-1.52046 0.475456,-0.57365 -0.313124,-0.83129 -0.787384,-1.16751 0,0 0.789953,0.006 1.181076,0.0542 1.489348,0.18432 3.898295,0.84861 4.412067,0.896 0.920755,0.0849 1.497419,-0.0469 1.493317,-0.40727 l -0.03021,-2.65423 z"
       style="fill:#f77c43;fill-opacity:1;fill-rule:evenodd;stroke:#000000;stroke-width:0;stroke-linecap:butt;stroke-linejoin:miter;stroke-miterlimit:4;stroke-dasharray:none;stroke-opacity:1" />
    <path
       sodipodi:nodetypes="cssccc"
       inkscape:connector-curvature="0"
       id="path6527"
       d="m 33.988768,239.90777 c 0.468998,-1.02734 0.05504,-2.06176 1.720982,-2.61601 0.493407,-0.16416 7.219037,-1.61656 17.31731,3.60937 3.615065,1.87082 5.9837,4.41846 8.23627,6.53721 l -10.847305,-1.73751 -16.427257,-5.79306"
       style="fill:#978674;fill-opacity:1;fill-rule:evenodd;stroke:#000000;stroke-width:0;stroke-linecap:butt;stroke-linejoin:miter;stroke-miterlimit:4;stroke-dasharray:none;stroke-opacity:1" />
    <path
       sodipodi:nodetypes="csssssccccccscccccc"
       inkscape:connector-curvature="0"
       id="path6518"
       d="m 33.98186,242.01466 c 0,0 -0.07262,-1.33128 0.03405,-2.02544 0.05116,-0.33294 0.0445,-0.79898 0.273119,-1.04637 0.233899,-0.2531 0.619634,-0.32956 0.95994,-0.38397 0.797839,-0.12757 2.419049,0.15359 2.419049,0.15359 0.05705,0.004 0.113556,0.003 0.167521,0.0137 1.176938,0.22292 1.822336,1.02268 3.173068,1.40704 l 4.722902,1.72789 c 1.691826,0.36541 1.780658,0.92166 6.220407,0.95994 0,0 0.268785,1.30552 0.575964,1.5743 0.307181,0.6232 1.689494,1.02953 1.689494,0.99834 5.203622,1.60333 4.716503,1.3919 7.045956,2.04466 -0.698213,-0.0734 -1.296123,-0.0295 -1.660694,0.0768 -1.214909,0.35419 -1.244297,0.12144 -2.092669,0.0768 1.398463,0.6076 2.261234,1.46099 3.081405,2.63983 -2.860828,-0.47026 -5.969408,-0.81665 -9.023429,-1.19032 0,0 -10.367349,0.46077 -10.52094,0.38397 -0.153588,-0.0768 -7.065152,-7.41073 -7.065152,-7.41073 z"
       style="fill:#897c6c;fill-opacity:1;fill-rule:evenodd;stroke:#000000;stroke-width:0;stroke-linecap:butt;stroke-linejoin:miter;stroke-miterlimit:4;stroke-dasharray:none;stroke-opacity:1" />
    <g
       transform="translate(-2.4574453,-2.4574455)"
       id="g6521"
       style="stroke-width:0.81430489">
      <path
         style="fill:#c3beb8;fill-opacity:1;fill-rule:evenodd;stroke:#000000;stroke-width:0;stroke-linecap:butt;stroke-linejoin:miter;stroke-miterlimit:4;stroke-dasharray:none;stroke-opacity:1"
         d="m 32.058168,250.29995 c 2.134255,2.30722 7.85445,4.45767 8.777221,4.88722 0.922771,0.42955 6.080719,2.66099 6.323167,2.6131 1.910654,0.39227 3.821307,0.31564 5.731961,0.21062 L 55.93145,256.056 c 0.838132,-0.91116 4.13503,-1.01947 8.074021,-1.43049 -0.09688,-1.04766 -1.853398,-0.9889 -3.078201,-1.28462 l -3.328351,-0.3324 -1.328478,-1.23192 c 0,0 -7.559881,-0.92218 -10.276326,-1.69383 -2.716444,-0.77165 -4.449603,-1.41251 -6.190469,-2.87802 -1.502005,-1.26443 -3.30695,-2.39673 -3.357432,-4.8395 -1.090052,0.17684 -1.986681,0.15019 -3.213159,1.41845 -1.471928,1.14988 -1.502673,3.795 -1.174887,6.51628 z"
         id="path2807"
         inkscape:connector-curvature="0"
         sodipodi:nodetypes="czccccccczaccc" />
    </g>
    <path
       sodipodi:nodetypes="ccccc"
       inkscape:connector-curvature="0"
       id="path6531"
       d="m 31.217234,234.33514 c 0.04032,-0.20505 0.04363,-0.39036 -0.01193,-0.54427 1.714914,1.75574 3.594653,0.85651 5.448545,0.35386 3.77e-4,0.14881 -0.06499,0.38865 -0.52945,1.18108 -2.070978,0.24248 -4.175541,0.52916 -4.907163,-0.99067 z"
       style="fill:#dad9d7;fill-opacity:1;fill-rule:evenodd;stroke:#000000;stroke-width:0;stroke-linecap:butt;stroke-linejoin:miter;stroke-miterlimit:4;stroke-dasharray:none;stroke-opacity:1" />
    <path
       sodipodi:nodetypes="ccsccsc"
       inkscape:connector-curvature="0"
       id="path6533"
       d="m 31.205304,233.79087 c 1.546502,1.55624 3.473942,1.08082 5.448545,0.35386 1.019296,-2.8092 -0.856518,-6.71606 -2.634787,-8.19211 -2.288655,-1.89969 -5.617508,-2.01462 -7.303261,1.09823 0.793199,0.55433 1.898347,2.21839 0.815264,3.63652 0.262045,0.14494 0.446207,0.24987 0.65043,0.19665 1.666093,-0.43417 2.642898,1.38676 3.023809,2.90685 z"
       style="fill:#135740;fill-opacity:0.99130435;fill-rule:evenodd;stroke:#000000;stroke-width:0;stroke-linecap:butt;stroke-linejoin:miter;stroke-miterlimit:4;stroke-dasharray:none;stroke-opacity:1" />
    <ellipse
       ry="0.57116407"
       rx="0.54716557"
       cy="227.49559"
       cx="29.335752"
       id="path6535"
       style="opacity:1;fill:#000000;fill-opacity:0.96956524;fill-rule:nonzero;stroke:#000000;stroke-width:0;stroke-linecap:round;stroke-linejoin:round;stroke-miterlimit:4;stroke-dasharray:none;stroke-dashoffset:0;stroke-opacity:1" />
    <path
       sodipodi:nodetypes="ccscc"
       inkscape:connector-curvature="0"
       id="path6540"
       d="m 26.715801,227.05085 c 2.176962,1.76304 1.168381,3.09278 0.815264,3.63652 -1.906422,0.94281 -2.370511,0.65571 -3.465381,0.74876 -0.350303,0.0298 -0.572974,-0.37383 -0.499169,-0.64316 0.771059,-1.41159 1.761036,-1.43105 3.149286,-3.74212 z"
       style="fill:#f67c43;fill-opacity:1;fill-rule:evenodd;stroke:#000000;stroke-width:0;stroke-linecap:butt;stroke-linejoin:miter;stroke-miterlimit:4;stroke-dasharray:none;stroke-opacity:1" />
  </g>
</svg>
