<?xml version="1.0" encoding="UTF-8" standalone="no"?>
<svg
   xmlns:android="http://schemas.android.com/apk/res/android"
   xmlns:dc="http://purl.org/dc/elements/1.1/"
   xmlns:cc="http://creativecommons.org/ns#"
   xmlns:rdf="http://www.w3.org/1999/02/22-rdf-syntax-ns#"
   xmlns:svg="http://www.w3.org/2000/svg"
   xmlns="http://www.w3.org/2000/svg"
   xmlns:sodipodi="http://sodipodi.sourceforge.net/DTD/sodipodi-0.dtd"
   xmlns:inkscape="http://www.inkscape.org/namespaces/inkscape"
   height="885.8267"
   width="885.8267"
   version="1.1"
   id="svg110"
   sodipodi:docname="ic_deer_m.svg"
   inkscape:export-filename="/home/tstauber/git/stautob/butchershoplabelprinter/resources/images/ic_deer_m.png"
   inkscape:export-xdpi="32.512001"
   inkscape:export-ydpi="32.512001"
   inkscape:version="0.92.4 5da689c313, 2019-01-14">
  <metadata
     id="metadata116">
    <rdf:RDF>
      <cc:Work
         rdf:about="">
        <dc:format>image/svg+xml</dc:format>
        <dc:type
           rdf:resource="http://purl.org/dc/dcmitype/StillImage" />
      </cc:Work>
    </rdf:RDF>
  </metadata>
  <defs
     id="defs114" />
  <sodipodi:namedview
     pagecolor="#ffffff"
     bordercolor="#666666"
     borderopacity="1"
     objecttolerance="10"
     gridtolerance="10"
     guidetolerance="10"
     inkscape:pageopacity="0"
     inkscape:pageshadow="2"
     inkscape:window-width="786"
     inkscape:window-height="480"
     id="namedview112"
     showgrid="false"
     inkscape:zoom="0.26641779"
     inkscape:cx="442.91336"
     inkscape:cy="442.91336"
     inkscape:window-x="0"
     inkscape:window-y="0"
     inkscape:window-maximized="0"
     inkscape:current-layer="svg110" />
  <path
     android:fillAlpha="1.0"
     d="m215,191.3 l12.1,6.6c0,0 35.1,7.6 52.6,-4.8 10.6,-7.5 8,-26.4 8,-26.4l-72.7,24.6"
     fill="#91674c"
     fill-opacity="1.0"
     stroke="#00000000"
     id="path2" />
  <path
     android:fillAlpha="1.0"
     d="m261.2,188.4l0,-0l1.7,-0.3 -0.2,-6.2c7,-3.4 15.2,-6.7 25.2,-9.7 -0,3.2 -0.4,7.4 -1.7,11.4l-25,4.8"
     fill="#81543e"
     fill-opacity="1.0"
     stroke="#00000000"
     id="path4" />
  <path
     android:fillAlpha="1.0"
     d="m653.9,667.1 l73.4,64.8 16.6,144l25.8,0l0.6,-7.7c0,0 5.8,-7.7 10.1,-13.3 4,-5.3 -20.6,-97.9 -23.8,-109.9 0.5,-9 0.7,-20.8 -0.8,-26.9 -1.8,-7.1 -28.9,-48.4 -47,-75.6l-9.7,-111.2 -21.9,-76.9 -87.5,90.4c0,0 37.5,85.2 49.6,103.4 12.1,18.3 14.7,18.9 14.7,18.9"
     fill="#91674c"
     fill-opacity="1.0"
     stroke="#00000000"
     id="path6" />
  <path
     android:fillAlpha="1.0"
     d="m358.7,711.3 l-0.1,0 17.8,164.6l24.9,0l-0.7,-22.7c0,0 5.1,-0.9 6.6,-9 0.9,-4.8 -9.6,-51.9 -18.4,-90l-2.2,-232.8 -93.4,25 45.6,86.5 19.8,78.5"
     fill="#91674c"
     fill-opacity="1.0"
     stroke="#00000000"
     id="path8" />
  <path
     android:fillAlpha="1.0"
     d="m743.8,875.9 l-16.6,-144 -73.4,-64.8c0,0 -2.6,-0.6 -14.7,-18.9 -3.4,-5.2 -8.9,-15.7 -15,-28.2 12.4,-26 25,-54.2 31.1,-73.5 7,-22 12.5,-44.2 16.3,-61.2 5.1,4.5 11.8,9.2 17.5,11.6l9.8,34.4 9.7,111.2c18.1,27.1 45.2,68.4 47,75.6 0.9,3.6 1.2,9.1 1.2,14.8 0,4.1 -0.1,8.4 -0.3,12.1l0,0 0,0c3,11.1 24.3,91.3 24.3,107.3 0,1.3 -0.1,2.2 -0.4,2.5 -0.9,1.2 -1.8,2.4 -2.7,3.6l-35.8,0l2,17.4"
     fill="#784835"
     fill-opacity="1.0"
     stroke="#00000000"
     id="path10" />
  <path
     android:fillAlpha="1.0"
     d="m400.8,858.5l-26.2,0l-16,-147.2 0.1,-0 -19.8,-78.5 -5.4,-10.2 1.4,-17.3c11.8,-0.4 32.8,-1.2 52.5,-1.9l1.4,150.8c8.5,36.6 18.4,81.5 18.5,89.2 0,0.3 -0,0.6 -0,0.8 -1.5,8.1 -6.6,9 -6.6,9l0,0 0,0l0.2,5.3"
     fill="#784835"
     fill-opacity="1.0"
     stroke="#00000000"
     id="path12" />
  <path
     android:fillAlpha="1.0"
     d="m325.5,605.6 l-64.6,-46.3c0,0 -23.8,-19.3 -37,-27.6 -18.6,-11.7 -28.9,-27.4 -32.9,-35 -6.9,-12.9 -16.6,-95.2 -16.6,-95.2l158.4,-26.1c0,0 53.1,-0.8 65.3,0.9 12.2,1.7 55.7,27.2 67.6,26.2 11.9,-1 115.2,-13 132.1,-11.3 17,1.7 80,60 80,60l-22.6,83.4 -65.4,28.3c0,0 -49,6.9 -70.6,9.3 -21.5,2.4 -68.5,29.4 -90,29.9 -21.5,0.5 -103.8,3.5 -103.8,3.5"
     fill="#91674c"
     fill-opacity="1.0"
     stroke="#00000000"
     id="path14" />
  <path
     android:fillAlpha="1.0"
     d="m590.6,687 l-27,4c0,0 -42.5,-70 -40,-86.4 2.5,-16.3 40,-135.5 40,-135.5l114.3,-14.4c0,0 -8.1,46.2 -22.6,91.8 -14.5,45.7 -64.7,140.4 -64.7,140.4"
     fill="#91674c"
     fill-opacity="1.0"
     stroke="#00000000"
     id="path16" />
  <path
     android:fillAlpha="1.0"
     d="m615,773.6 l-51.5,-82.6 19,-79.2c0,0 47,124.1 46.1,138.2 -0.8,14 -13.7,23.6 -13.7,23.6"
     fill="#91674c"
     fill-opacity="1.0"
     stroke="#00000000"
     id="path18" />
  <path
     android:fillAlpha="1.0"
     d="m321.9,762.4 l-15.8,12.8 -22.4,-144.2c0,0 -24.7,-70.3 -37.5,-92.1 -12.8,-21.9 95.1,-12.3 95.1,-12.3l-19.5,235.7"
     fill="#91674c"
     fill-opacity="1.0"
     stroke="#00000000"
     id="path20" />
  <path
     android:fillAlpha="1.0"
     d="m413.1,421.4 l-205,66.6c0,0 -31.8,-61 -33.8,-86.4 -2,-25.4 -0.6,-82.7 0,-92.9 0.5,-10.2 36.9,-60.5 36.9,-60.5l68.7,-24.8 17.5,79.3c0,0 15.3,49.3 21.8,53.8 6.5,4.5 93.8,64.9 93.8,64.9"
     fill="#91674c"
     fill-opacity="1.0"
     stroke="#00000000"
     id="path22" />
  <path
     android:fillAlpha="1.0"
     d="m183,193.2c4.7,-1 19,-4 19,-4l21.2,-1.6 35.9,-3 20.8,38.7 -6.6,30.9c0,0 -60.7,23 -82,20.3 -21.4,-2.7 -42.2,-16.8 -45,-16.8l-13.6,-0 -15.8,-3.7c0,0 -11.3,-7.8 -11.9,-10.9 -0.6,-3.2 3.8,-12 3.8,-12l-0.3,-2.7 7.3,-7.4c1,-0.5 1.9,-0.4 2.9,-0.4 1.1,0.1 2.2,0.1 3.7,-0.5 14.5,-7.8 49.5,-19.8 49.5,-19.8 0,0 6.2,-6.1 10.9,-7.1"
     fill="#91674c"
     fill-opacity="1.0"
     stroke="#00000000"
     id="path24" />
  <path
     android:fillAlpha="1.0"
     d="m230.1,187.6c-11.7,-14.3 -27.8,-27.6 -49.8,-38.6 -38.6,-19.1 -75.7,-36.4 -75,-85.8l3.5,-6.2 2.4,5.3c-0.6,39.7 34.8,57.2 72.3,75.9 22.7,11.3 46.2,22.9 60.1,40l-13.6,9.3"
     fill="#6b554a"
     fill-opacity="1.0"
     stroke="#00000000"
     id="path26" />
  <path
     android:fillAlpha="1.0"
     d="m242.9,193.4 l-12,-12.6c21.1,-14 49.5,-29.4 118.8,-35.1 88.3,-7.2 138.3,-79.5 168.2,-133.3l4.8,-2.5 1.5,5.2c-29.5,57.9 -74.4,138.3 -171.9,146.3 -64.4,5.3 -89.4,18.7 -109.5,32"
     fill="#6b554a"
     fill-opacity="1.0"
     stroke="#00000000"
     id="path28" />
  <path
     android:fillAlpha="1.0"
     d="m242.3,189.2 l-10.9,-12.4c5.5,-4 9.4,-10.1 13.9,-17.2 9.8,-15.3 22,-34.4 58.1,-46.8 49.5,-17 67,-28 85.2,-93.2 0,0 1.2,-3.5 4.4,-3 3.2,0.4 1.9,4.7 1.9,4.7 -18.9,67.7 -32.4,85.4 -88.6,104.8 -30.5,10.5 -37.3,27.9 -46.2,41.8 -5.1,8.1 -10,15.6 -17.9,21.4"
     fill="#6b554a"
     fill-opacity="1.0"
     stroke="#00000000"
     id="path30" />
  <path
     android:fillAlpha="1.0"
     d="m384.5,154.8 l-0.3,-14.9c12.8,-2.2 25.7,-23.9 34.6,-48.4 10.1,-28 22.2,-57.2 46,-78.8l4.9,-1.1 -0.1,4.9c-21,19.2 -27.7,52.4 -37.3,78.9 -10.9,30.2 -24.5,55.8 -47.7,59.6"
     fill="#6b554a"
     fill-opacity="1.0"
     stroke="#00000000"
     id="path32" />
  <path
     android:fillAlpha="1.0"
     d="m322.1,119.2 l-6.5,-10.8c9.1,-4.4 11.9,-10.2 10.1,-22.9 -2.2,-15.4 -4.5,-31.6 21.1,-57.2l4.8,-0.4 0.4,4c-20.3,20.3 -16.1,40.7 -14.2,54.4 1.7,12.6 3.8,23.2 -15.8,32.8"
     fill="#6b554a"
     fill-opacity="1.0"
     stroke="#00000000"
     id="path34" />
  <path
     android:fillAlpha="1.0"
     d="m230.1,187.6c-9.6,-11.8 -17.2,-22.2 -27.9,-31.5 -26.6,-23.1 -46.8,-44.8 -46,-98.6l3.5,-6.2 2.8,5.4c-0.7,46.7 21.8,66.3 47.8,88.9 11.2,9.8 22.9,19.9 33.3,32.7l-13.6,9.3"
     fill="#6b554a"
     fill-opacity="1.0"
     stroke="#00000000"
     id="path36" />
  <path
     android:fillAlpha="1.0"
     d="m229.9,194.4 l11.1,8.2c0,0 33.7,12.4 52.8,2.5 11.5,-6 11.5,-25.1 11.5,-25.1l-75.4,14.5"
     fill="#91674c"
     fill-opacity="1.0"
     stroke="#00000000"
     id="path38" />
  <path
     android:fillAlpha="1.0"
     d="m262.9,188 l-0.3,-10.2 -40.7,-4.4 -11.3,17 21.4,3.6 31,-5.9"
     fill="#6b554a"
     fill-opacity="1.0"
     stroke="#00000000"
     id="path40" />
  <path
     android:fillAlpha="1.0"
     d="m696.2,474.5c0,0 -8.4,-21.2 -24.1,-35.6 -4.1,-1.7 -45.7,-26.3 -38.3,-18.9 -7.9,3.2 0.1,17.7 4.1,24.6l26.2,32.4c4.1,7.2 24.3,23.4 33.3,21.4 0,0 2.6,-10.4 -1.2,-23.9"
     fill="#91674c"
     fill-opacity="1.0"
     stroke="#00000000"
     id="path42" />
  <path
     android:fillAlpha="1.0"
     d="m606.4,875.9 l0.9,-11.2c0,0 11.7,-4 13.8,-11.8 2.1,-7.7 7.6,-102.9 7.6,-102.9l-23.1,-27.5 -23.8,153.5l24.6,0"
     fill="#91674c"
     fill-opacity="1.0"
     stroke="#00000000"
     id="path44" />
  <path
     android:fillAlpha="1.0"
     d="m323.9,875.9 l1.1,-17.6c0,0 6.2,-2.5 7.4,-8.1 1.2,-5.6 -17,-142 -17,-142l-19.3,3.4 2.7,164.3l25.1,0"
     fill="#91674c"
     fill-opacity="1.0"
     stroke="#00000000"
     id="path46" />
  <path
     android:fillAlpha="1.0"
     d="m323.9,875.9l-25.1,0l-0.3,-17.4l26.4,0l-1.1,17.4"
     fill="#82543e"
     fill-opacity="1.0"
     stroke="#00000000"
     id="path48" />
  <path
     android:fillAlpha="1.0"
     d="m401.3,875.9l-24.9,0l-1.9,-17.4l0,0l1.9,17.4l24.9,0m0,0 l-0.5,-17.4l0,0l0.5,17.4"
     fill="#4f7a7f"
     fill-opacity="1.0"
     stroke="#00000000"
     id="path50" />
  <path
     android:fillAlpha="1.0"
     d="m401.3,875.9l-24.9,0l-1.9,-17.4l26.2,0l0.5,17.4"
     fill="#663b2b"
     fill-opacity="1.0"
     stroke="#00000000"
     id="path52" />
  <path
     android:fillAlpha="1.0"
     d="m581.8,875.9 l2.7,-17.4l0,0l-2.7,17.4m25.5,-11.2c0,-0 0.5,-0.2 1.3,-0.5 -0.8,0.3 -1.3,0.5 -1.3,0.5"
     fill="#4f7a7f"
     fill-opacity="1.0"
     stroke="#00000000"
     id="path54" />
  <path
     android:fillAlpha="1.0"
     d="m606.4,875.9l-24.6,0l2.7,-17.4l33,0c-3,2.9 -6.9,4.8 -8.9,5.7 -0.8,0.3 -1.3,0.5 -1.3,0.5l0,0 0,0l-0.9,11.2"
     fill="#82543e"
     fill-opacity="1.0"
     stroke="#00000000"
     id="path56" />
  <path
     android:fillAlpha="1.0"
     d="m769.6,875.9l-25.8,0 25.8,0l0.6,-7.7c0,0 3.7,-4.9 7.3,-9.7l0,0c-3.7,4.8 -7.4,9.7 -7.4,9.7l-0.6,7.7"
     fill="#4f7a7f"
     fill-opacity="1.0"
     stroke="#00000000"
     id="path58" />
  <path
     android:fillAlpha="1.0"
     d="m769.6,875.9l-25.8,0l-2,-17.4l35.8,0c-3.7,4.8 -7.3,9.7 -7.3,9.7l-0.6,7.7"
     fill="#663b2b"
     fill-opacity="1.0"
     stroke="#00000000"
     id="path60" />
  <path
     android:fillAlpha="1.0"
     d="m184.1,469.2c-4.1,-23 -7.9,-52.7 -9.2,-63.5 1.3,10.8 5.1,40.5 9.2,63.4 0,0 0,0 0,0.1m-9.2,-63.5c-0,-0 -0,-0.1 -0,-0.1 0,0 0,0.1 0,0.1m-0,-0.2c0,-0 -0,-0 -0,-0 0,0 0,0 0,0m-0,-0.3c0,-0 -0,-0.1 -0,-0.1 0,0 0,0.1 0,0.1m-0,-0.1c0,-0 0,-0 -0,-0l0,0c0,0 0,0 0,0m-0.4,-96.4c0.3,-5.1 9.4,-20.2 18.5,-34l0,0c-9.1,13.8 -18.3,28.9 -18.5,34"
     fill="#89b8b7"
     fill-opacity="1.0"
     stroke="#00000000"
     id="path62" />
  <path
     android:fillAlpha="1.0"
     d="m184.1,469.1c-4.1,-22.9 -7.9,-52.7 -9.2,-63.4 0,-0 0,-0 0,-0 -0,-0 -0,-0.1 -0,-0.1 0,-0 0,-0 0,-0.1 0,-0 0,-0 -0,-0 0,-0.1 -0,-0.2 -0,-0.2 0,-0 -0,-0.1 -0,-0.1l0,0c0,-0 0,-0 -0,-0 1.5,9.6 6.1,22.8 11.5,35.8 -1.2,9.6 -1.9,19 -2.2,28.3"
     fill="#a17a5b"
     fill-opacity="1.0"
     stroke="#00000000"
     id="path64" />
  <path
     android:fillAlpha="1.0"
     d="m186.3,440.8c-5.3,-13.1 -10,-26.2 -11.5,-35.8l0,0c-0.3,-2.2 -0.4,-3.4 -0.4,-3.4l0,0c-0.8,-9.7 -1.1,-24 -1.1,-38.5 0,-23.7 0.7,-48.1 1.1,-54.4l0,0c0.3,-5.1 9.4,-20.1 18.5,-34 0.7,0 1.5,0.1 2.3,0.1 2.8,0 6,-0.3 9.6,-0.8 7.8,15.6 7.4,36.9 1.7,63.4 -6.2,28.9 -12.4,57.8 -17.7,86.8 -1,5.6 -1.9,11.1 -2.6,16.6"
     fill="#a17a5b"
     fill-opacity="1.0"
     stroke="#00000000"
     id="path66" />
  <path
     android:fillAlpha="1.0"
     d="m195.3,274.8c-0.8,0 -1.6,-0 -2.3,-0.1l0,0c0,-0 0,-0 0,-0l-1.6,-0.1l0,0c-21.4,-2.7 -42.2,-16.8 -45,-16.8l-13.6,-0 -1.5,-0.4c15.9,-3.2 32.7,-6.2 47.9,-6.2 12.4,5.3 20.7,13 25.6,22.9 -3.5,0.5 -6.7,0.8 -9.6,0.8"
     fill="#a17a5b"
     fill-opacity="1.0"
     stroke="#00000000"
     id="path68" />
  <path
     android:fillAlpha="1.0"
     d="m672.1,438.8c-1.2,-0.5 -5.4,-2.8 -10.6,-5.8 5.3,2.9 9.5,5.3 10.6,5.8m-207.1,-36.2c-12.5,0 -52.9,-23.5 -66,-26.1 13.1,2.6 53.5,26.1 66,26.1l0,0m0,0c0.3,0 0.5,-0 0.7,-0 -0.2,0 -0.5,0 -0.7,0m128.5,-11.5l0,0 0,0 0,0m-194.6,-14.6c-0.3,-0 -0.5,-0.1 -0.7,-0.1 0.2,0 0.5,0.1 0.7,0.1m-0.8,-0.1c-3.8,-0.5 -11.6,-0.8 -20.6,-1 8.9,0.1 16.7,0.4 20.6,1m-62.6,-8.7c-3.6,-2.5 -6.8,-4.7 -9.3,-6.5 2.6,1.8 5.8,4 9.3,6.5m-219.6,-146.7c0.6,-0.3 1.2,-0.4 1.8,-0.4 -0.6,0 -1.1,0.1 -1.8,0.4m4,-0.3c-0,0 -0,0 -0,0 0,0 0,0 0,0l0,0m0,0c0.6,-0 1.4,-0.1 2.2,-0.3 -0.8,0.3 -1.5,0.3 -2.2,0.3m-0.9,-0c-0,-0 -0.1,-0 -0.1,-0 0,0 0.1,0 0.1,0m-0.1,-0c-0.2,-0 -0.4,-0 -0.6,-0 0.2,0 0.4,0 0.6,0m-0.9,-0c-0,0 -0,0 -0.1,0l0,0c0,0 0,0 0.1,0m4.5,-0.4c0,0 0,-0 0,-0 -0,0 -0,0 -0,0m155,-11.4c5.8,-0.2 11.5,-1.3 16.2,-3.8 11.5,-6 11.5,-25.1 11.5,-25.1l0,0c0,0 -0,19.2 -11.5,25.1 -4.7,2.5 -10.4,3.6 -16.2,3.8m8.8,-25.2l0,0l19,-3.6 -19,3.6"
     fill="#96cbd2"
     fill-opacity="1.0"
     stroke="#00000000"
     id="path70" />
  <path
     android:fillAlpha="1.0"
     d="m261.2,188.4l0,-0l0,0l0,0l25,-4.8l0,0l-25,4.8"
     fill="#a76d51"
     fill-opacity="1.0"
     stroke="#00000000"
     id="path72" />
  <path
     android:fillAlpha="1.0"
     d="m640.9,448.3c-17.3,-6.6 -36.2,-10.5 -55.5,-12.3 -3.9,-0.4 -7.8,-0.5 -11.8,-0.5 -27.2,0 -56,7.7 -82.7,8.9 -3.4,0.1 -6.8,0.2 -10.2,0.2 -17.2,0 -34.4,-1.8 -51.6,-3.7 -4,-3 -8.4,-5.7 -13.9,-7.6 -8.2,-2.8 -16.6,-3.9 -25,-4.6l22.9,-7.4c0,0 -38.8,-26.8 -66.6,-46.1 4.1,-0 8.7,-0 13.6,-0 5.8,0 11.8,0 17.4,0.1 8.9,0.1 16.7,0.4 20.6,1l0,0c0,0 0,0 0.1,0 0.2,0 0.5,0.1 0.7,0.1 0,0 0.1,0 0.1,0 13.1,2.6 53.5,26.1 66,26.1l0,0 0,0 0,0c0.3,0 0.5,-0 0.7,-0l0,0c11.1,-1 102.1,-11.5 127.8,-11.5l0,0c1.8,0 3.3,0 4.4,0.2 9.4,0.9 32.9,19.2 52,35.3 -7.9,-4.3 -15.1,-8.1 -16.7,-8.1 -0.5,0 -0.4,0.4 0.6,1.4 -7.9,3.2 0.1,17.7 4.1,24.6l3,3.7"
     fill="#b28663"
     fill-opacity="1.0"
     stroke="#00000000"
     id="path74" />
  <path
     android:fillAlpha="1.0"
     d="m390.3,428.8c-19.4,-1.6 -38.7,-0.9 -54.4,-13.3 -12,-9.5 -42.3,-22 -44.7,-26.8l-5.2,-7.6 -1.4,-6.5c-6.2,-29.3 -11.8,-77.5 -29.2,-111.8 -0.2,-0.7 -0.3,-1.3 -0.5,-2 10.8,-3.6 18.5,-6.5 18.5,-6.5l6.6,-30.9 17.5,79.3c0,0 15.3,49.3 21.8,53.8 0.9,0.6 3.3,2.3 6.9,4.8 2.6,1.8 5.8,4 9.3,6.5 3.4,2.3 7.1,4.9 11,7.6 0,0 0,0 0,0 27.8,19.2 66.6,46.1 66.6,46.1l-22.9,7.4"
     fill="#b28663"
     fill-opacity="1.0"
     stroke="#00000000"
     id="path76" />
  <path
     android:fillAlpha="1.0"
     d="m254.9,260.8c-8,-28.6 -30.4,-38.8 -56.7,-38.8 -9.6,0 -19.8,1.4 -29.9,3.7 -13.7,3.2 -27.1,7.6 -40.5,11.8 -6,1.9 -12.1,3.8 -18.1,5.6l-3.9,1 -0.5,-1.1l0,0c-0,-0.2 -0,-0.4 -0,-0.7 -0,-3.6 3.9,-11.3 3.9,-11.3l0,0 0,0l-0.3,-2.7 7.3,-7.4l0,0c0.6,-0.3 1.2,-0.4 1.8,-0.4 0,0 0.1,-0 0.2,-0 0,0 0,0 0.1,0 0.1,0 0.2,0 0.3,0 0.2,0 0.4,0 0.6,0l0,0 0,0c0,0 0.1,0 0.1,0 0.3,0 0.6,0 0.9,0 0,0 0,0 0,0l0,0 0,0c0,0 0,0 0,0 0.6,-0 1.4,-0.1 2.2,-0.3 0.1,-0 0.2,-0.1 0.3,-0.1 0,0 0,-0 0,-0 0,-0 0,-0 0.1,-0 14.5,-7.8 49.5,-19.8 49.5,-19.8 0,0 6.2,-6.1 10.9,-7.1 4.7,-1 19,-4 19,-4l9.8,-0.7 -1.3,1.9 21.4,3.6 9.7,-1.9 0,0 -11.8,2.3 11.1,8.2c0,0 15.4,5.6 31.2,6.3l7.8,14.5 -6.6,30.9c0,0 -7.7,2.9 -18.5,6.5M187.6,203.3c-1.2,0 -2.5,0.2 -4,0.9 -5.2,2.3 -5.9,6.2 -5.9,6.2l5.1,2.1c5.1,-0.6 9.4,-7.7 9.4,-7.7 0,0 -1.7,-1.4 -4.6,-1.4m58.5,-12c0,-0 0,-0 0,-0l15.1,-2.9l0,0l-15.1,2.9"
     fill="#b28663"
     fill-opacity="1.0"
     stroke="#00000000"
     id="path78" />
  <path
     android:fillAlpha="1.0"
     d="m241.7,192.1 l-0,-0 4.5,-0.9c-0,0 -0,0 -0,0l-4.4,0.8"
     fill="#8b6f60"
     fill-opacity="1.0"
     stroke="#00000000"
     id="path80" />
  <path
     android:fillAlpha="1.0"
     d="m275.1,208.9c-1,0 -1.9,-0 -2.9,-0.1l0,0c-15.8,-0.6 -31.2,-6.3 -31.2,-6.3l-11.1,-8.2 11.8,-2.3 4.4,-0.8 15.1,-2.9 25,-4.8 19,-3.6c0,0 -0,19.2 -11.5,25.1 -4.7,2.5 -10.4,3.5 -16.2,3.8 -0.8,0 -1.6,0 -2.4,0"
     fill="#b28663"
     fill-opacity="1.0"
     stroke="#00000000"
     id="path82" />
  <path
     android:fillAlpha="1.0"
     d="m232,194 l-21.4,-3.6 1.3,-1.9 11.4,-0.8 35.9,-3 2,3.8l-0,0l-15.1,2.9 -4.5,0.9 -9.7,1.9"
     fill="#8b6f60"
     fill-opacity="1.0"
     stroke="#00000000"
     id="path84" />
  <path
     android:fillAlpha="1.0"
     d="m698.3,489c-15.1,-19.1 -35,-32.2 -57.4,-40.7l-3,-3.7c-3.9,-6.9 -11.9,-21.5 -4.1,-24.6 -1,-1 -1.1,-1.4 -0.6,-1.4 1.6,0 8.8,3.8 16.7,8.1 0,0 0,0 0.1,0.1 3.9,2.1 8,4.4 11.5,6.4 5.3,2.9 9.5,5.3 10.6,5.8l0,0c15.7,14.5 24.1,35.6 24.1,35.6 1.6,5.6 2,10.6 2,14.6"
     fill="#b28663"
     fill-opacity="1.0"
     stroke="#00000000"
     id="path86" />
  <path
     android:fillAlpha="1.0"
     d="m182.8,212.4 l-5.1,-2.1c0,0 0.6,-3.9 5.9,-6.2 1.5,-0.7 2.9,-0.9 4,-0.9 2.9,0 4.6,1.4 4.6,1.4 0,0 -4.2,7.2 -9.4,7.7"
     fill="#9a6445"
     fill-opacity="1.0"
     stroke="#00000000"
     id="path88" />
  <path
     android:fillAlpha="1.0"
     d="m298.1,828.3l-0,0l-1.9,-116.6 1.9,116.6m-1.9,-116.6 l0.1,-0 -12.5,-80.6l0,0 0,0l12.5,80.6 -0.1,0m-12.4,-80.7l0,0 0,0m-0,-0l0,0 0,0m-0,-0c-0.4,-1.2 -7.5,-21.1 -15.8,-42.7 8.4,21.6 15.4,41.5 15.8,42.7m-30.3,-77.6 l-7.7,-5.9c0,0 0.1,0 0.1,0.1 2.8,2.1 5.3,4.1 7.5,5.8"
     fill="#96cbd2"
     fill-opacity="1.0"
     stroke="#00000000"
     id="path90" />
  <path
     android:fillAlpha="1.0"
     d="m298.3,843.7 l-0.3,-15.4l0,0l0.3,15.3c-0,0 -0,0 -0,0.1"
     fill="#7db5b9"
     fill-opacity="1.0"
     stroke="#00000000"
     id="path92" />
  <path
     android:fillAlpha="1.0"
     d="m253.6,553.4 l-0.1,-0.1c-2.2,-1.7 -4.8,-3.7 -7.5,-5.8 2.1,0.9 4.2,1.9 6.2,2.8 0.5,1 1,2.1 1.5,3.2"
     fill="#b28663"
     fill-opacity="1.0"
     stroke="#00000000"
     id="path94" />
  <path
     android:fillAlpha="1.0"
     d="m316.2,713.7c-0.5,-3.5 -0.7,-5.4 -0.7,-5.4l-19.2,3.4 -12.5,-80.6l0,0 0,-0 0,0c-0,-0 -0,-0 -0,-0l0,0c0,-0 -0,-0 -0,-0 -0.4,-1.2 -7.4,-21.1 -15.8,-42.7 -4.7,-12.1 -9.8,-24.6 -14.4,-34.8l0,-0c-0.5,-1.1 -1,-2.2 -1.5,-3.2 10.1,4.5 20.3,9.1 30,14.2l0.3,0.2c23.2,44.9 30.3,93.7 34,144 -0.1,1.7 -0.2,3.4 -0.3,5.1"
     fill="#b28663"
     fill-opacity="1.0"
     stroke="#00000000"
     id="path96" />
  <path
     android:fillAlpha="1.0"
     d="m298.3,843.6 l-0.3,-15.3 -1.9,-116.6 0.1,-0 19.2,-3.4c0,0 0.3,2 0.7,5.4 -0.2,4.7 -0.5,9.1 -0.7,12.9 -1.7,39.6 -8.3,78.6 -17.2,117"
     fill="#b28663"
     fill-opacity="1.0"
     stroke="#00000000"
     id="path98" />
  <path
     android:fillAlpha="1.0"
     d="m532.5,570.7c0,-0 0.1,-0 0.1,-0l0,0l-0.1,0"
     fill="#96cbd2"
     fill-opacity="1.0"
     stroke="#00000000"
     id="path100" />
  <path
     android:fillAlpha="1.0"
     d="m529.8,571 l4.4,-5.7c-0.5,1.8 -1.1,3.6 -1.6,5.4 -0,0 -0.1,0 -0.1,0l-2.6,0.3"
     fill="#b28663"
     fill-opacity="1.0"
     stroke="#00000000"
     id="path102" />
  <path
     android:fillAlpha="1.0"
     d="m563.5,691c0,0 -40.1,-66 -40.1,-84.8 0,-0.6 0,-1.1 0.1,-1.6 0.7,-4.6 4.3,-17.8 9,-34l0,0 0,0c0.5,-1.8 1,-3.5 1.6,-5.4l0.4,-0.6 5.7,-10.3 5.4,-4.2c4,1.4 8.2,2.6 12.9,3 6.3,0.5 14.5,41 20.3,73.9l-15.3,63.9"
     fill="#b28663"
     fill-opacity="1.0"
     stroke="#00000000"
     id="path104" />
  <path
     android:fillAlpha="1.0"
     d="m593.8,739.5 l-30.2,-48.5 15.3,-63.9c3.5,19.7 6.2,36.6 7.2,40.7 6.4,26.1 8.6,49.6 7.7,71.7"
     fill="#b28663"
     fill-opacity="1.0"
     stroke="#00000000"
     id="path106" />
  <path
     android:fillAlpha="1.0"
     d="m262.9,188 l-0.3,-10.2 -40.7,-4.4 -11.3,17 21.4,3.6 31,-5.9"
     fill="#6b554a"
     fill-opacity="1.0"
     stroke="#00000000"
     id="path108" />
</svg>
