<?xml version="1.0" encoding="utf-8" standalone="no"?><svg xmlns:android="http://schemas.android.com/apk/res/android" height="885.8267" width="885.8267" xmlns="http://www.w3.org/2000/svg">
    <path android:fillAlpha="1.0" d="m318.4,362.9c0,0 -8.8,6.9 -14.2,3.6 -5.3,-3.3 -8.3,-32 -8.3,-32l1.1,-0.3c19.7,5 21.3,28.7 21.3,28.7" fill="#e58945" fill-opacity="1.0" stroke="#00000000"/>
    <path android:fillAlpha="1.0" d="m491.2,484.9 l29.4,-53.9c0,0 -43.1,-14 -49.9,-7.9 -6.8,6.1 -10.8,57.9 -10.8,57.9 -0.7,3.8 11.1,20.2 18.1,29.6 -1.9,9.7 -5.3,22.6 -7.5,30.8 -2,1.1 -3.6,2.1 -3.8,2.6 -0.5,1.5 -1.3,7.6 -1.3,7.6l11.1,0l0.1,-0.3c1.8,-1.2 9.8,-7.2 10.3,-10.3 0.5,-3.5 8.6,-27.2 7.6,-31.6 -1.8,-3.9 -2.8,-15.8 -3.3,-24.7" fill="#e58945" fill-opacity="1.0" stroke="#00000000"/>
    <path android:fillAlpha="1.0" d="m401.2,545.4 l-2.7,-59.4 -14.3,-39.4l-26.5,0l21.4,42.5c4.9,16 11.2,42.9 11.4,52.8 -1.6,1 -3,1.8 -3.5,2.1 -1.5,0.9 -1.1,7.6 -1.1,7.6l10.1,0l0.1,-0.7 5.2,-5.5" fill="#e58945" fill-opacity="1.0" stroke="#00000000"/>
    <path android:fillAlpha="1.0" d="m476.5,551.6l-11.1,0c0,0 0.7,-6.2 1.3,-7.6 0.2,-0.5 1.8,-1.5 3.8,-2.6 2.2,-8.2 5.6,-21.2 7.5,-30.8l0,0 0,0c-6.8,-9.1 -18.2,-24.9 -18.2,-29.3 0,-0.1 0,-0.3 0,-0.4 0,0 0.7,-9.3 2.1,-20.5 2.7,-0.1 5.8,-0.3 9,-0.4 -0,-0 -0,-0 -0,-0 1.8,-0.1 3.6,-0.1 5.5,-0.2 4.2,7.5 10.2,15.7 15.9,22.9l-1.1,2.1l0,0c0.5,8.8 1.5,20.8 3.3,24.7 0.1,0.3 0.1,0.6 0.1,1 0,6.2 -7.2,27.3 -7.7,30.6 -0.5,3.1 -8.5,9 -10.3,10.3l-0.1,0.3" fill="#d86629" fill-opacity="1.0" stroke="#00000000"/>
    <path android:fillAlpha="1.0" d="m395.9,551.6l-10.1,0c0,0 -0,-0.7 -0,-1.7 -0,-2.1 0.2,-5.4 1.2,-6 0.5,-0.3 1.9,-1.1 3.5,-2.1l0,0 0,0c-0.2,-9.9 -6.5,-36.8 -11.4,-52.8L371.9,475c5.7,0.7 12.7,1.2 19.2,1.2 0,0 0,0 0,0l0,0 0,0c0,0 0,0 0,0 1.3,0 2.5,-0 3.7,-0.1l3.6,9.9 2.7,59.4 -5.2,5.5 -0.1,0.7" fill="#d86629" fill-opacity="1.0" stroke="#00000000"/>
    <path android:fillAlpha="1.0" d="m502.4,459.2c0,0 -41.5,0.8 -50,2.1 -8.5,1.3 -35,8.8 -45.1,12.9 -10.1,4.1 -33.5,1.3 -43,-0.1 -9.5,-1.4 -40.7,-15.3 -43.6,-19.1 -2.9,-3.8 -12.2,-34.1 -14.9,-36.8 -2.2,-2.2 29.1,-28.8 29.1,-28.8 0,0 21.1,-9.6 27.8,-8.4 6.6,1.3 25.7,10.4 30,12 4.3,1.6 25.3,1.6 25.3,1.6 0,0 62.2,-8.8 70.5,-5.2 8.3,3.6 37.6,27.6 37.6,27.6l-23.9,42.2" fill="#e58945" fill-opacity="1.0" stroke="#00000000"/>
    <path android:fillAlpha="1.0" d="m547.7,505.1c0,0 -28,2.5 -37.8,-1.8 -2,-0.7 3.2,-28.4 4.9,-25.9 20.5,12 31.9,14.1 31.9,14.1l1,13.7" fill="#e58945" fill-opacity="1.0" stroke="#00000000"/>
    <path android:fillAlpha="1.0" d="m547.7,551.6l-4.3,0c0,0 -3.2,-44.2 -10.8,-50.8 -3.7,-2.1 13.8,-9.7 13.8,-9.7 8,6.2 9.3,32.2 9.3,41.3 -0.4,4.3 -4.3,10.9 -4.3,10.9l-3.8,8.3" fill="#e58945" fill-opacity="1.0" stroke="#00000000"/>
    <path android:fillAlpha="1.0" d="m293.9,351.2c0,0 21,3.8 25.3,7 4.3,3.3 44.9,29 49.1,28.9 4.2,-0.1 -42.6,52.3 -42.6,52.3 0,0 -17.3,-20.6 -31,-31.4 -5.3,-4.2 -14.8,-6.9 -15.6,-6.3 -11.4,-0.6 -27.5,-1.3 -30,-1.3 -2.4,0 -4.4,-4.8 -5.5,-4.7l-5.8,-5.4c0,0 -0.5,-5 2.3,-5.3 1.6,-0.9 13,-7.3 13,-7.3L264.5,372.8c1.2,-0.6 5.7,-8.9 7.6,-11.1 1.9,-2.2 21.8,-10.5 21.8,-10.5" fill="#e58945" fill-opacity="1.0" stroke="#00000000"/>
    <path android:fillAlpha="1.0" d="m394.9,476.2l0,0c4.8,-0.2 9.1,-0.8 12.3,-2 -3.1,1.2 -7.5,1.8 -12.3,2" fill="#d6bf8d" fill-opacity="1.0" stroke="#00000000"/>
    <path android:fillAlpha="1.0" d="m391.2,476.2c1.3,0 2.5,-0 3.7,-0.1l0,0c-1.2,0 -2.5,0.1 -3.7,0.1" fill="#eab06f" fill-opacity="1.0" stroke="#00000000"/>
    <path android:fillAlpha="1.0" d="m407.2,474.1c0,-0 0.1,-0 0.1,-0.1 10.1,-4.1 36.6,-11.6 45.1,-12.9 1.9,-0.3 5.3,-0.5 9.6,-0.8 0,0 0,0 0,0 -4.3,0.2 -7.7,0.5 -9.6,0.8 -8.5,1.3 -35,8.8 -45.1,12.9 -0,0 -0.1,0 -0.1,0.1" fill="#d6bf8d" fill-opacity="1.0" stroke="#00000000"/>
    <path android:fillAlpha="1.0" d="m461.9,460.5c0,0 0,0 0,-0 2.7,-0.1 5.8,-0.3 8.9,-0.4 0,0 0,0 0,0 -3.2,0.1 -6.2,0.3 -9,0.4" fill="#eab06f" fill-opacity="1.0" stroke="#00000000"/>
    <path android:fillAlpha="1.0" d="m364.8,474.1c-0,-0 -0,-0 -0.1,-0 0,0 0,0 0.1,0m-30.5,-11.3c-6.9,-3.3 -12.4,-6.3 -13.6,-7.8 -2.9,-3.8 -12.1,-34 -14.9,-36.8 -3.7,-3.6 -7.6,-7.1 -11.2,-10 -0,-0 -0.1,-0.1 -0.1,-0.1 0,0 0.1,0.1 0.1,0.1 3.6,2.8 7.4,6.3 11.1,9.9 0,0 0,0 0,0 2.7,2.7 12,33 14.9,36.8 1.1,1.5 6.7,4.6 13.6,7.8l0,0m-39.9,-54.8l0,0 0,0m-0.7,-0.5c-0,-0 -0.1,-0.1 -0.1,-0.1 0,0 0.1,0.1 0.1,0.1m-0.2,-0.1c-0,-0 -0.1,-0.1 -0.1,-0.1 0,0 0.1,0.1 0.1,0.1m-0.2,-0.1c-0.1,-0 -0.2,-0.1 -0.2,-0.2 0.1,0.1 0.2,0.1 0.2,0.2m-0.4,-0.3c-0,-0 -0,-0 -0,-0 0,0 0,0 0,0m-0,-0c-0.1,-0.1 -0.2,-0.1 -0.3,-0.2 0.1,0.1 0.2,0.1 0.3,0.2m-0.4,-0.3c-0,0 -0,0 -0,0 0,0 0,0 0,0m-0,-0c-4.9,-3 -11.2,-4.9 -12.9,-4.9l0,0c1.7,0 8.1,1.9 12.9,4.9m-13.3,-4.8c-11.4,-0.6 -27.5,-1.3 -30,-1.3 -2.4,0 -4.3,-4.7 -5.5,-4.7l0,0c1.2,0 3.1,4.7 5.5,4.7 2.5,0 18.6,0.8 30,1.3 0.1,-0 0.2,-0.1 0.4,-0.1 -0.2,0 -0.3,0 -0.4,0.1M243.6,395.8c-0.2,-0 -2.2,-1.9 -3.8,-3.4 0,-0 0.1,-0 0.1,-0L243.6,395.8c0,0 0,0 0.1,0 -0,0 -0,0 -0.1,0" fill="#d6bf8d" fill-opacity="1.0" stroke="#00000000"/>
    <path android:fillAlpha="1.0" d="m391.1,476.2c-0,0 -0,0 -0,0 -9.7,-0 -20.4,-1.3 -26.3,-2.2 -0,-0 -0,-0 -0.1,-0 -0,0 -0,0 -0,-0 -2.7,-7.5 -6.3,-16.6 -8.6,-22.2 8.9,4.4 18.1,5.7 27.4,5.7 11.3,0 22.8,-2 34.4,-3 4.8,-0.4 9.4,-0.6 13.8,-0.6 13.9,0 26.6,2 39.1,6.1 -3.2,0.1 -6.2,0.3 -8.9,0.4l0,0c-4.3,0.2 -7.7,0.5 -9.6,0.8 -8.5,1.3 -35,8.8 -45.1,12.9 -0,0 -0.1,0 -0.1,0.1 -0,0 -0,0 -0,0 -3.1,1.2 -7.5,1.8 -12.3,2l0,0c-1.2,0 -2.5,0.1 -3.7,0.1 -0,0 -0,0 -0,0m-56.8,-13.5c-6.9,-3.3 -12.4,-6.3 -13.6,-7.8 -2.9,-3.8 -12.2,-34.1 -14.9,-36.8 -0,-0 -0,-0 -0,-0 10.5,10.2 19.9,21.5 19.9,21.5 0,0 0.2,-0.2 0.6,-0.7 0.1,3 0.5,5.7 1.1,7.8 1.3,4.1 3.9,10 6.9,16.1" fill="#edb775" fill-opacity="1.0" stroke="#00000000"/>
    <path android:fillAlpha="1.0" d="m325.7,439.5c0,0 -9.4,-11.2 -19.9,-21.5 -3.7,-3.6 -7.5,-7.1 -11.1,-9.9 -0,-0 -0.1,-0.1 -0.1,-0.1 -0,-0 -0.1,-0.1 -0.2,-0.1l0,0c-0.2,-0.2 -0.4,-0.3 -0.7,-0.5 -0,-0 -0.1,-0.1 -0.1,-0.1 -0,-0 -0,-0 -0.1,-0 -0,-0 -0.1,-0.1 -0.1,-0.1 -0,-0 -0,-0 -0,-0 -0.1,-0 -0.2,-0.1 -0.2,-0.2 -0.1,-0 -0.1,-0.1 -0.2,-0.1 -0,-0 -0,-0 -0,-0 -0,0 -0,-0 -0,-0 -0.1,-0.1 -0.2,-0.1 -0.3,-0.2 -0,-0 -0.1,-0 -0.1,-0.1 -0,0 -0,0 -0,0 -0,-0 -0,-0 -0,-0 -4.9,-3 -11.2,-4.9 -12.9,-4.9l0,0 0,0l-0,0c-0.2,0 -0.3,0 -0.4,0.1 -11.4,-0.6 -27.5,-1.3 -30,-1.3 -2.4,0 -4.3,-4.7 -5.5,-4.7l0,0 0,0 0,0c-0,0 -0,0 -0.1,0l-3.7,-3.4c12.8,-1.3 25.9,-4.9 38.3,-4.9 10.2,0 20,2.4 28.8,10.5 8.3,7.6 14.1,16.8 20.2,25.6 -0.6,5.2 -0.9,10.5 -0.7,15.2 -0.4,0.4 -0.6,0.7 -0.6,0.7" fill="#edb775" fill-opacity="1.0" stroke="#00000000"/>
    <path android:fillAlpha="1.0" d="m311.3,361.3c0,0 -7.9,8 -13.6,5.3 -5.7,-2.6 -12.1,-30.8 -12.1,-30.8l1.1,-0.4c20.2,2.6 24.7,25.9 24.7,25.9" fill="#e58945" fill-opacity="1.0" stroke="#00000000"/>
    <path android:fillAlpha="1.0" d="m548,551.6l-11.1,0c0,0 0.1,-5.5 1.2,-7.6 1.2,-2.1 12.6,-6.8 12.6,-6.8l-2.8,14.4" fill="#e58945" fill-opacity="1.0" stroke="#00000000"/>
    <path android:fillAlpha="1.0" d="m595.4,463.2c-52.3,-5.7 -65.7,-41.1 -83.1,-51.5 -4.7,-2.8 -5,-0.7 -5.2,1.4 -0.1,1.4 -0.3,2.8 -1.7,2.8l3.6,-1.8 -18.7,-13.1c13.9,-14.9 32.3,-8.6 51.4,2.7 31.9,19 56.5,31 79,10.8 1,-0.9 0.9,-0.7 3,-2.9 4.7,-4.9 20.3,0.3 22.4,1.9 1.9,1.5 4.2,20 -2,25.1 -1.5,1.3 -1.2,1 -0.9,0.8 0.2,-0.2 0.4,-0.3 0.1,-0 -14.7,14.1 -32.7,23.7 -47.9,23.7" fill="#e58945" fill-opacity="1.0" stroke="#00000000"/>
    <path android:fillAlpha="1.0" d="m629.3,450.8c4.8,-3.3 9.5,-7 13.9,-11.2 0.8,-0.8 -1.8,1.3 0.8,-0.8 6.2,-5.1 3.9,-23.6 2,-25.1 -2.1,-1.6 -17.7,-6.8 -22.4,-1.9 -2.1,2.2 -2,2 -3,2.9 -4,3.5 -8,6 -12.1,7.7 6.1,10 13,19.3 20.9,28.4" fill="#efc281" fill-opacity="1.0" stroke="#00000000"/>
    <path android:fillAlpha="1.0" d="m532.7,490.6c0.6,10.1 -22.8,12.7 -22.8,12.7 0,0 -43.9,-47 -38.7,-62.1 5.2,-15.1 42.4,-30.3 49.8,-24.2 16.7,11 7,62.4 11.8,73.7" fill="#e58945" fill-opacity="1.0" stroke="#00000000"/>
    <path android:fillAlpha="1.0" d="m371.1,545.4c-1.5,1.6 -5.8,6.2 -5.8,6.2l-5.4,-6.2c0,0 -12.9,-64 -15.7,-68.7 -2.8,-4.6 24.2,9.3 24.2,9.3 0,0 4.3,57.8 2.7,59.4" fill="#e58945" fill-opacity="1.0" stroke="#00000000"/>
    <path android:fillAlpha="1.0" d="m368.3,486c0.2,5.2 -20.4,2.3 -20.4,2.3 0,0 -16.6,-29.2 -20.4,-41.7 -3.8,-12.5 3,-43.6 3,-43.6l23.6,43.6c0,0 14.1,34.2 14.3,39.4" fill="#e58945" fill-opacity="1.0" stroke="#00000000"/>
    <path android:fillAlpha="1.0" d="m365.6,551.6l-10.8,0c0,0 -0.8,-6.6 1.2,-7.6 2,-1.1 12.3,-6.8 12.3,-6.8l-2.7,14.4" fill="#e58945" fill-opacity="1.0" stroke="#00000000"/>
    <path android:fillAlpha="1.0" d="m347.2,487c-0.4,-0.8 -1.1,-1.9 -1.8,-3.2 0.7,1.4 1.4,2.5 1.8,3.2 0,0 0,0 0,0" fill="#96cbd2" fill-opacity="1.0" stroke="#00000000"/>
    <path android:fillAlpha="1.0" d="m358.4,538.4c-2.5,-12.1 -7.7,-37.1 -11.2,-51.4 -0,-0 -0,-0 -0,-0 0,0 0,0 0,-0 0.5,0.9 0.7,1.3 0.7,1.3 0,0 3.5,0.5 7.5,0.7 8.5,16.7 8.5,33.6 2.9,49.4" fill="#edad5a" fill-opacity="1.0" stroke="#00000000"/>
    <path android:fillAlpha="1.0" d="m355.5,489c-4.1,-0.2 -7.5,-0.7 -7.5,-0.7 0,0 -0.3,-0.5 -0.7,-1.3 -0.4,-0.8 -1.1,-1.9 -1.8,-3.2 -2.5,-4.5 -6.4,-11.8 -10,-19.1 6.6,5.9 12.9,12.1 17.7,20 0.9,1.5 1.7,2.9 2.5,4.4" fill="#edad5a" fill-opacity="1.0" stroke="#00000000"/>
    <path android:fillAlpha="1.0" d="m540.7,527.6l-0,0c-1.2,-8.2 -2.9,-16.6 -5.2,-21.9 0,0 0,0 0,0 2.2,5.4 3.9,13.8 5.1,21.9" fill="#96cbd2" fill-opacity="1.0" stroke="#00000000"/>
    <path android:fillAlpha="1.0" d="m541.4,532.8c-0.2,-1.7 -0.5,-3.4 -0.7,-5.2l0,0c0.3,1.7 0.5,3.5 0.7,5.2l0,0" fill="#7db5b9" fill-opacity="1.0" stroke="#00000000"/>
    <path android:fillAlpha="1.0" d="m512.6,504.2c-1,-0.3 -2,-0.6 -2.8,-0.9l0,0 0,0 0,0 0,0c0.8,0.4 1.7,0.7 2.8,0.9" fill="#96cbd2" fill-opacity="1.0" stroke="#00000000"/>
    <path android:fillAlpha="1.0" d="m530.4,505.8c-6.3,0 -13.1,-0.4 -17.8,-1.6 -1,-0.3 -2,-0.6 -2.8,-0.9 0,0 17.1,-1.9 21.7,-8.7 1.4,0.7 2.7,1.4 4,2.2 -2.7,1.7 -4.4,3.3 -3,4.1 1.1,0.9 2.1,2.6 3,4.8 -0,0 -0,0 -0,0 -0,-0 -0,-0 -0,-0 -1.6,0 -3.4,0.1 -5.1,0.1m-20.6,-2.5l0,0 0,0 0,0" fill="#edad5a" fill-opacity="1.0" stroke="#00000000"/>
    <path android:fillAlpha="1.0" d="m541.4,532.8c-0.2,-1.7 -0.5,-3.4 -0.7,-5.2 -1.2,-8.2 -2.9,-16.6 -5.1,-21.9 -0.9,-2.2 -1.9,-3.9 -3,-4.8 -1.4,-0.8 0.3,-2.4 3,-4.1 0.5,0.3 0.9,0.6 1.4,0.9 3,3.3 5.6,7.1 7.3,12.6 2.7,8.3 0.8,15.7 -2.8,22.6" fill="#edad5a" fill-opacity="1.0" stroke="#00000000"/>
    <path android:fillAlpha="1.0" d="m509.8,503.3l0,0 0,0c-0.1,-0.2 -22.6,-24.2 -33.4,-43.4l-0,-0.4c-0,0 -0,0 -0,0 -0.4,0 -1.1,-5.9 -0.7,-8.3 0.4,-2.8 0.9,-5.6 1.3,-8.5 7.6,16.5 22.2,34.1 36.4,42.9 5.7,3.5 12.2,6 18.2,9 -4.6,6.8 -21.7,8.7 -21.7,8.7l0,0" fill="#edad5a" fill-opacity="1.0" stroke="#00000000"/>
    <path android:fillAlpha="1.0" d="m579.9,422.7c-11.7,-3.5 -24.3,-10.5 -38.3,-18.9 14.1,8.4 26.8,15.4 38.5,18.9 -0,0 -0.1,0 -0.2,0m-38.3,-18.9c-6,-3.6 -12,-6.7 -17.7,-8.7 5.8,2.1 11.7,5.1 17.7,8.7M418.1,394.6c-0.2,0 -0.7,0 -1.4,0 0.7,0 1.2,0 1.4,0l0,0m-1.8,-0c-0.1,0 -0.2,0 -0.3,0 0.1,0 0.2,0 0.3,0m-0.8,-0c-0,0 -0,0 -0,0 0,0 0,0 0,0m-20,-1c-0,0 -0,0 -0,0 0,0 0,0 0,0m-1.3,-0.2c-0,0 -0,-0 -0.1,-0 0,0 0,0 0.1,0m-0.1,-0c0,0 -0,0 -0,-0 0,0 0,0 0,0m-0.7,-0.2c-0.1,-0 -0.1,-0 -0.1,-0 0,0 0.1,0 0.1,0m-0.1,-0c-0,-0 -0.1,-0 -0.1,-0 0,0 0.1,0 0.1,0m-0.2,-0.1c-0.1,-0 -0.1,-0 -0.1,-0 0,0 0.1,0 0.1,0m-154.7,-2.1 l-0.5,-0.4c0,0 -0,-0.3 -0,-0.8 0,0.5 0,0.8 0,0.8l0.5,0.4c0,0 -0,0 -0,0m250.4,-1.6c-0,-0 -0,-0 -0,-0 0,0 0,0 0,0m-8.3,-0.9l-0,0l0,0l0,0m-123.9,-6.9c-2.9,-1.7 -6.2,-3.6 -9.5,-5.6 3.3,2 6.6,3.9 9.5,5.6 -0,0 -0,0 -0,0M272.1,361.7c1.4,-1.6 12.3,-6.5 18.2,-9 0,0 0,0 0,0 -5.9,2.5 -16.8,7.3 -18.2,9" fill="#96cbd2" fill-opacity="1.0" stroke="#00000000"/>
    <path android:fillAlpha="1.0" d="m297,339.2c0,0 0,0 -0,0 0,0 0,0 0,0m-0.1,-0c-0,-0 -0,-0 -0,-0 0,0 0,0 0,0" fill="#edad5a" fill-opacity="1.0" stroke="#00000000"/>
    <path android:fillAlpha="1.0" d="m296.5,338.9c-1.6,-1 -3.4,-1.8 -5.3,-2.4 1.9,0.6 3.7,1.4 5.3,2.4l0,0" fill="#96cbd2" fill-opacity="1.0" stroke="#00000000"/>
    <path android:fillAlpha="1.0" d="m296.9,339.1c-0.1,-0.1 -0.3,-0.2 -0.4,-0.3l0,0c0.1,0.1 0.3,0.2 0.4,0.3" fill="#edad5a" fill-opacity="1.0" stroke="#00000000"/>
    <path android:fillAlpha="1.0" d="m291.2,336.4c-0,-0 -0.1,-0 -0.1,-0 0,0 0.1,0 0.1,0m-0.1,-0c-0,-0 -0.1,-0 -0.1,-0 0,0 0.1,0 0.1,0m-0.1,-0c-0,-0 -0.1,-0 -0.1,-0 0,0 0.1,0 0.1,0m-0.1,-0c-0,-0 -0,-0 -0.1,-0 0,0 0,0 0.1,0m-0.1,-0c-0,-0 -0,-0 -0.1,-0 0,0 0,0 0.1,0m-0.1,-0c-0,-0 -0,-0 -0,-0 0,0 0,0 0,0M290.5,336.2c-0,-0 -0,-0 -0,-0 0,0 0,0 0,0m-0.1,-0l0,0 0,0m-0.1,-0l-0,0c0,0 0,0 0,0m-4.7,-0.3l0,0 0,0m0,0l0,0 0,0m0,0l0,0 0,0 0,0m1.6,-0.4l0,0 0,0m-0.1,-0c-0,0 -0,0 -0,0 0,0 0,0 0,0m-0.1,-0c-0,0 -0,-0 -0,-0 0,0 0,0 0,0m-0.1,-0c-0,-0 -0,-0 -0.1,-0 0,0 0,0 0.1,0m-0.1,-0c-0,-0 -0.1,-0 -0.1,-0 0,0 0.1,0 0.1,0" fill="#96cbd2" fill-opacity="1.0" stroke="#00000000"/>
    <path android:fillAlpha="1.0" d="m417,411.7c-12.7,0 -25.6,-1.5 -37.3,-4.4l-0.1,-0.1c-5.7,-4.1 -11.4,-7.5 -17.4,-10.3 4.5,-5.7 7.3,-9.7 6.1,-9.7 -0,0 -0,0 -0,0 -0,0 -0,0 -0,0 -1.3,0 -5.9,-2.3 -11.8,-5.7l0,0c0,0 0,0 0,0 1.9,-0.4 3.6,-0.7 5,-0.7 0.5,0 0.9,0 1.3,0.1 6.6,1.3 25.7,10.4 30,12l0,0c0,0 0.1,0 0.1,0 0,0 0.1,0 0.1,0 0,0 0.1,0 0.1,0 0,0 0,0 0,0 0,0 0.1,0 0.1,0 0.2,0.1 0.4,0.1 0.7,0.2 0,0 0,0 0,0 0,0 0,0 0,0 0,0 0,0 0.1,0 0.4,0.1 0.8,0.2 1.3,0.2 0,0 0,0 0,0 5.2,0.8 15.2,1 20,1 0,0 0,0 0,0 0.2,0 0.4,0 0.5,0 0.1,0 0.2,0 0.3,0 0.1,0 0.3,0 0.4,0 0.7,0 1.2,0 1.4,0l0,0 0,0c0.1,0 0.1,0 0.1,0 0,0 43,-6.1 62.3,-6.1l0,0c3.9,0 6.8,0.2 8.2,0.8 0,0 0,0 0,0l0,0c2,0.9 5.4,3 9.3,5.7 -2.7,1.4 -5.3,3.4 -7.8,6l3.1,2.2c-0.4,-0 -0.8,-0 -1.3,-0 -2.2,0 -4.4,0.1 -6.7,0.4 -2.3,-0.5 -4.7,-0.7 -7.2,-0.7 -9.5,0 -19.5,3 -27.7,5 -10.3,2.5 -21.8,3.7 -33.4,3.7" fill="#edad5a" fill-opacity="1.0" stroke="#00000000"/>
    <path android:fillAlpha="1.0" d="m362.2,396.9c-3.9,-1.9 -8,-3.6 -12.3,-5 -8.5,-3 -15.6,-3.1 -22.7,-9.5 -4,-3.6 -8.3,-6.5 -13.1,-9 -4.6,-2.4 -9.6,-3.4 -14.8,-3.4 -20.3,0 -43.7,15.3 -61,21l-0.5,-0.4c0,0 -0,-0.3 -0,-0.8 -0,-1.4 0.3,-4.3 2.4,-4.6 1.6,-0.9 13,-7.3 13,-7.3L264.5,372.8c1.2,-0.6 5.7,-8.9 7.6,-11.1l0,0c1.4,-1.6 12.3,-6.5 18.2,-9 2.2,6.5 4.9,12.7 7.4,13.9 0.8,0.4 1.6,0.5 2.5,0.5 5.2,0 11.1,-5.9 11.1,-5.9 0,0 -0.6,-2.9 -2.2,-6.8 4.4,1.1 8.5,2.5 10.1,3.7 2.3,1.8 15.6,10.3 27.8,17.7 3.3,2 6.6,3.9 9.5,5.6 5.9,3.4 10.5,5.7 11.8,5.7 0,0 0,0 0,0 0,0 0,0 0,0 1.1,0 -1.6,4 -6.1,9.7m-85.6,-29.7c-0.8,0 -1.8,0.2 -3,0.9 -2.9,1.7 -3,4.1 -3,4.1l3.2,0.9c3,-0.7 5,-5.3 5,-5.3 0,0 -0.8,-0.6 -2.2,-0.6" fill="#edad5a" fill-opacity="1.0" stroke="#00000000"/>
    <path android:fillAlpha="1.0" d="m300.2,367.2c-0.9,0 -1.7,-0.2 -2.5,-0.5 -2.5,-1.2 -5.2,-7.4 -7.4,-13.9 -0,-0 -0,-0 -0,-0 0,0 0,0 0,-0 -2.7,-8.1 -4.7,-16.7 -4.7,-16.9l0,0 0,0 0,0 0,0 0,0l1.1,-0.4l0,0c0,0 0.1,0 0.1,0 0,0 0,0 0,0 0,0 0,0 0.1,0 0,0 0,0 0.1,0 0,0 0,0 0,0 0,0 0,0 0.1,0 0,0 0,0 0,0 0,0 0.1,0 0.1,0l0,0c1.1,0.2 2.1,0.4 3.1,0.7l0,0c0,0 0.1,0 0.1,0l0,0c0,0 0,0 0.1,0 0,0 0,0 0,0 0,0 0.1,0 0.1,0 0,0 0,0 0,0 0,0 0,0 0,0 0,0 0,0 0.1,0 0,0 0,0 0.1,0 0,0 0,0 0.1,0 0,0 0,0 0,0 0,0 0.1,0 0.1,0 0,0 0,0 0,0 0,0 0.1,0 0.1,0 0,0 0,0 0,0 0,0 0.1,0 0.1,0 0,0 0,0 0,0 1.9,0.6 3.7,1.4 5.3,2.4 0.1,0.1 0.3,0.2 0.4,0.3 0,0 0,0 0,0 0,0 0,0 0,0 0,0 0,0 0.1,0 0,0 0,0 0,0 6.4,4.1 10,10.5 12.1,15.4 0,0 0,0 0,0 1.6,3.9 2.2,6.8 2.2,6.8 0,0 -5.8,5.9 -11.1,5.9" fill="#edad5a" fill-opacity="1.0" stroke="#00000000"/>
    <path android:fillAlpha="1.0" d="m569.4,423.6c-11.2,0 -22.4,-3.1 -34.4,-8.5C525.3,410.9 515.3,406.3 504.9,404.6 501.2,403.8 497.3,403.3 493.3,403.3l-3.1,-2.2c2.4,-2.6 5,-4.6 7.8,-6 0,0 0,0 0,0 3.7,-1.9 7.7,-2.8 11.8,-2.8 4.5,0 9.2,1 14.1,2.8 5.8,2.1 11.7,5.1 17.7,8.7l0,0 0,0c14,8.4 26.7,15.4 38.3,18.9 -3.5,0.6 -7,0.9 -10.5,0.9" fill="#edad5a" fill-opacity="1.0" stroke="#00000000"/>
    <path android:fillAlpha="1.0" d="m273.8,373 l-3.2,-0.9c0,0 0.1,-2.4 3,-4.1 1.1,-0.7 2.1,-0.9 3,-0.9 1.4,0 2.2,0.6 2.2,0.6 0,0 -2,4.6 -5,5.3" fill="#cf853e" fill-opacity="1.0" stroke="#00000000"/>
</svg>