<?xml version="1.0" encoding="utf-8" standalone="no"?><svg xmlns:android="http://schemas.android.com/apk/res/android" height="885.8267" width="885.8267" xmlns="http://www.w3.org/2000/svg">
    <path android:fillAlpha="1.0" d="m369.4,93.6c-2.5,0.3 -2.1,4.2 -2.1,4.2 0.7,2.7 1.2,5.3 1.4,7.9l0.1,2.4 -0.2,5 -0.4,2.8 -1,4.4 -0.8,2.6 -2,4.7 -2.5,4.7 -1.8,3 -2.8,4 -1.3,1.8 -3.6,4.7l0,-0.1c-0.4,-2.3 -1.3,-4.9 -2.4,-7.7l-1.6,-3.7 -1.5,-2.8c-1.3,-2.4 -2.7,-5 -4.5,-7.8l-4.3,-0.8 -1,4.3c1.6,2.5 2.8,4.7 3.8,6.8l1,2.5 1.3,3.3 0.6,2.6 0.4,2.4 -0.1,2.5 -0.2,2.1 -0.6,2.3 -0.7,2 -1.1,2.3 -1.2,2.2 -1.4,2.3 -1.8,2.7 -1.9,2.7 -0.2,0.3 -3.9,5 -0.9,1.3 -3.2,4.5 -1.6,2.7 -3.1,5.6 -1.8,3.9 -1,2.8 -1.2,4.2 -0.5,2.8 -0.4,4.8 -0.1,2.5c0.1,2.5 0.3,5 0.9,7.7l10.7,-2.4c-3.7,-17.1 8.3,-30.9 22.3,-47 16.3,-18.7 29.5,-38.3 21.3,-68.1 0,0 -0.7,-3 -3.3,-2.6" fill="#847972" fill-opacity="1.0" stroke="#00000000"/>
    <path android:fillAlpha="1.0" d="m320.4,191.4c-0.2,-0.1 -0.4,-0.1 -0.6,-0.1l0.8,-2.3 1.8,-3.9 3.1,-5.6 1.6,-2.7 3.2,-4.5 0.9,-1.3 3.9,-5 0.2,-0.3 1.9,-2.7 1.8,-2.7 1.4,-2.3 1.2,-2.2 1.1,-2.3 0.7,-2 0.6,-2.3 0.2,-2.1 0.1,-2.5 -0.4,-2.4L343.4,139.6 342.1,136.3 341,133.8c-1,-2.1 -2.3,-4.3 -3.8,-6.8l1,-4.3 4.3,0.8c1.8,2.8 3.2,5.3 4.5,7.8l1.5,2.8 1.6,3.7c1.1,2.8 2,5.4 2.4,7.7l0,0.1l3.6,-4.7 0.4,-0.6c0.9,10.2 -4.4,15.4 -13,23.5 -9.8,8 -18.7,16.7 -23.1,27.6M364.3,147.3c0,-4.2 -0.8,-9 -2.6,-14.8l0.2,-0.3 2.5,-4.7 2,-4.7 0.8,-2.6 1,-4.4 0.4,-2.8 0.2,-5 -0.1,-2.4c-0.2,-2.5 -0.6,-5.1 -1.4,-7.9 0,0 -0,-0.2 -0,-0.5 0,-1.1 0.2,-3.4 2.2,-3.6 0.1,-0 0.3,-0 0.4,-0 2.3,0 2.9,2.7 2.9,2.7 1.7,6.2 2.5,12 2.5,17.4 0,12.6 -4.1,23.3 -10.3,33.1 -0.2,0.2 -0.4,0.4 -0.7,0.5" fill="#71665f" fill-opacity="1.0" stroke="#00000000"/>
    <path android:fillAlpha="1.0" d="m317.5,207.6c-0.5,-23.4 17.8,-37.6 35.5,-51.3 18.9,-14.7 36.8,-28.5 35.1,-52.9 0,0 0.3,-3.9 2.9,-3.7 2.6,0.2 2.7,3.2 2.7,3.2 2.2,30.8 -14.6,47.5 -34.1,62.7 -16.9,13 -31.4,24.3 -31.1,41.8l-11,0.3" fill="#a07c64" fill-opacity="1.0" stroke="#00000000"/>
    <path android:fillAlpha="1.0" d="m342.5,176.4 l-3.3,-8.6 0.9,-0.8c14.2,-13.4 21.5,-18.1 12.7,-40.7 0,0 -0.8,-2.8 1.8,-4.1 2.6,-1.3 4,1.6 4,1.6 11.3,29 4.7,36.4 -11.6,51.8l-4.5,0.8" fill="#a07c64" fill-opacity="1.0" stroke="#00000000"/>
    <path android:fillAlpha="1.0" d="m390.9,99.7c-2.6,-0.2 -2.9,3.7 -2.9,3.7 1.4,19.5 -9.7,32.2 -23.8,44 0,-6.1 -1.6,-13.5 -5.5,-23.6 0,0 -1.5,-2.9 -4,-1.6 -2.6,1.2 -1.8,4.1 -1.8,4.1 8.2,20.9 2.5,26.5 -9.6,37.8 -14.1,11.6 -26.1,24.5 -25.7,43.6l11,-0.3c-0.4,-17.4 14.2,-28.7 31.1,-41.8 19.5,-15.2 36.3,-31.9 34.1,-62.7 0,0 -0.1,-3 -2.7,-3.2" fill="#847972" fill-opacity="1.0" stroke="#00000000"/>
    <path android:fillAlpha="1.0" d="m400.3,764c0,0 -0.9,2.6 0,0" fill="#a07c64" fill-opacity="1.0" stroke="#00000000"/>
    <path android:fillAlpha="1.0" d="m397.6,751.9c0,0 -19.4,-84.4 -22.1,-96.2 -2.7,-11.8 2.6,-49.1 0.4,-57.9l-14.8,-81.5 -54.3,5.9 44.8,88.8 24.4,181.2l24.4,0l-8,-23.9 8,-4.4c0.9,-2.6 -2.7,-12.1 -2.7,-12.1" fill="#a07c64" fill-opacity="1.0" stroke="#00000000"/>
    <path android:fillAlpha="1.0" d="m542,585.5 l53.9,-130.6c0,0 -102.4,7.9 -112.7,13.4 -10.4,5.5 12.2,126.7 12.2,126.7 0.7,7.3 45.8,76 52.2,85.7 -2.7,36 -7.3,84.8 -7.3,84.8l0.3,-0 -9.2,26.7l31.1,0l4.4,-26.2c0,0 -1,-2.6 -2.6,-5.6 2.4,-0.8 4.1,-1.6 4.5,-2.3 1.4,-3.3 -4.4,-104.4 -6.9,-109.4l-19.8,-63.1" fill="#a07c64" fill-opacity="1.0" stroke="#00000000"/>
    <path android:fillAlpha="1.0" d="m399.9,765.1c0,0 0.1,-0.3 0.3,-1 -0.1,0.3 -0.3,1 -0.3,1" fill="#845e47" fill-opacity="1.0" stroke="#00000000"/>
    <path android:fillAlpha="1.0" d="m400.2,764.1l0,-0 0,0" fill="#845e47" fill-opacity="1.0" stroke="#00000000"/>
    <path android:fillAlpha="1.0" d="m400.2,764.1c0,-0 0,-0 0,-0.1 -0,0 -0,0 -0,0.1" fill="#845e47" fill-opacity="1.0" stroke="#00000000"/>
    <path android:fillAlpha="1.0" d="m400.3,764.1c0,-0 0,-0 0,-0 0,0 -0,0 -0,0" fill="#845e47" fill-opacity="1.0" stroke="#00000000"/>
    <path android:fillAlpha="1.0" d="m400.3,764l0,-0 0,0" fill="#845e47" fill-opacity="1.0" stroke="#00000000"/>
    <path android:fillAlpha="1.0" d="m400.3,764c0,-0 0,-0 0,-0l0,0c-0,0 -0,0 -0,0" fill="#845e47" fill-opacity="1.0" stroke="#00000000"/>
    <path android:fillAlpha="1.0" d="m394.3,774.6l-20.8,0l-22,-163.5 -22.8,-45.2c7.5,1.1 15.2,1.6 23.2,1.6 6,-0 12.2,-0.3 18.3,-0.8l5.7,31.1c0.4,1.6 0.5,4.1 0.5,7.2 0,10.5 -1.7,27.9 -1.7,40.1 0,4.3 0.2,8.1 0.8,10.6 2.7,11.8 22.1,96.2 22.1,96.2 0,0 2.9,7.5 2.9,11 0,0.4 -0,0.8 -0.1,1.1l0,0l-8,4.4 2.1,6.2" fill="#845e47" fill-opacity="1.0" stroke="#00000000"/>
    <path android:fillAlpha="1.0" d="m400.3,764c0,0 -0.9,2.6 0,0" fill="#a07c64" fill-opacity="1.0" stroke="#00000000"/>
    <path android:fillAlpha="1.0" d="m400.3,792.3l-24.4,0l-2.4,-17.7l0,0l2.4,17.7l24.4,0m0,0 l-6,-17.7l0,0l6,17.7" fill="#44736c" fill-opacity="1.0" stroke="#00000000"/>
    <path android:fillAlpha="1.0" d="m400.3,792.3l-24.4,0l-2.4,-17.7l20.8,0l6,17.7" fill="#6e4232" fill-opacity="1.0" stroke="#00000000"/>
    <path android:fillAlpha="1.0" d="m562.5,792.3 l2.9,-17.7l-27.9,0l3.1,-9 -0.3,0c0,0 4.6,-48.9 7.3,-84.8l0,0 0,0c-6.4,-9.7 -51.5,-78.5 -52.2,-85.7 0,0 -4.7,-25.3 -8.8,-53.3 6,-1.3 10.8,-2.1 14.3,-2.1 1.4,0 2.6,0.1 3.5,0.4 5.3,1.5 11.3,3 17.6,4.6 3.6,10.2 7.4,20.6 10.9,30.2 7.4,20.2 13.5,36.1 13.5,36.1l0,0 0,0c0,0 0,0 0,0l0,0c0,0 0,0 0,0 0.2,0.4 0.6,1 1.2,1.7l0,0c0,0 0,0 0,0 0,0 0,0 0,0 0,0 0,0 0,0 0,0 0,0 0,0l0,0c0,0 0,0 0,0.1l0,0c1,1.1 2.4,2.4 4.1,3.9l10,32c2.2,4.5 7.1,85.7 7.1,105.3 -0,2.3 -0.1,3.8 -0.2,4.1 -0.3,0.7 -2.1,1.5 -4.5,2.3l0,0 0,0c1.6,3 2.6,5.6 2.6,5.6l-4.4,26.2" fill="#845e47" fill-opacity="1.0" stroke="#00000000"/>
    <path android:fillAlpha="1.0" d="m504.4,540c-7.9,-2.3 -32.5,5.6 -63.4,13.5 -38.9,9.9 -87.6,19.8 -125.2,9.6 -21.9,-10.7 -37.3,-23.1 -37.3,-23.1 0,0 -62.9,-62.6 -61.8,-76.4 1.1,-13.7 41.2,-76.5 41.2,-76.5 0,0 35.6,-11.4 55.9,-11.5 20.3,-0.2 83.7,35.3 105.8,35.4 6,1.6 104.2,-10.5 104.2,-10.5 0,0 37.9,-2.7 47.5,-1.9 9.6,0.8 36,12.7 36,12.7l21.9,39 -24.9,76.7c0,0 -30.7,37.4 -43.3,30.2 -12.5,-7.2 -38.9,-12.1 -56.6,-17.2" fill="#a07c64" fill-opacity="1.0" stroke="#00000000"/>
    <path android:fillAlpha="1.0" d="m313.8,375.7 l-97.1,88c0,0 -1,-32.6 3.2,-40.2 -0.8,-4.6 -8.6,-6.8 -9.9,-13.9 -1.3,-7.1 10.3,-57.1 16.6,-69.5 6.3,-12.3 83,-99.5 83,-99.5l22.1,-46.1c0,0 14.4,23.7 17.5,29.7 3.1,6 -1,67.1 -4.6,75.9 -3.6,8.8 -21.5,48.4 -22.5,55.3 -1.1,6.8 22.2,33.2 27.1,35.2 4.9,2 -35.4,-14.9 -35.4,-14.9" fill="#a07c64" fill-opacity="1.0" stroke="#00000000"/>
    <path android:fillAlpha="1.0" d="M306.6,268.7 L297.1,270.4c0,0 -53.1,-11.5 -49.8,-10.8 3.4,0.7 -23.3,-2.7 -26.1,-3.2C218.4,256 216.2,249.4 216.2,249.4L213,248.6 209.6,240.2c0,0 -3.2,-5 -0.9,-7.7 2.3,-2.8 48.1,-18.4 48.1,-18.4 0,0 4.8,-9.9 10.1,-11.3 5.3,-1.5 30.2,-8.2 30.2,-8.2 0,0 19.3,-4.3 23.5,-3.1 4.2,1.2 11.2,3.1 11.2,3.1l-25.1,74.2" fill="#a07c64" fill-opacity="1.0" stroke="#00000000"/>
    <path android:fillAlpha="1.0" d="m678,759.5c0.3,-5 -46.5,-125.1 -46.5,-125.1l-36.1,-44.6c10.8,-43.5 35.3,-104.8 33.8,-139.4 -3.2,-9.7 -122.7,31.7 -122.9,43.2 -0.2,11.5 40.1,117.3 40.1,117.3 2.5,7.4 74.3,54.6 82.1,59.7 5.6,25.8 13.3,65.8 17,85.3l-13.6,36.4l33.6,0l4.7,-26.2 -0.3,-2.2c4.6,-1.2 8,-2.7 8.1,-4.3" fill="#a07c64" fill-opacity="1.0" stroke="#00000000"/>
    <path android:fillAlpha="1.0" d="m329.1,755.5c0,0 -11.8,-89.2 -13,-98 -1.2,-8.9 7.5,-47.9 6.4,-57.6l-7,-82.6l-56.9,0l37.3,93.2 6.6,181.8l27.1,0l-6.4,-22c0,0 7.1,1.1 7.6,-2.5 0.5,-3.6 -1.6,-12.3 -1.6,-12.3" fill="#a07c64" fill-opacity="1.0" stroke="#00000000"/>
    <path android:fillAlpha="1.0" d="m651.4,469.4c0,0 -56.2,-19.7 -58.7,-28.7 -2.5,-9 14.5,-29.3 14.5,-29.3 0,0 14.8,8.9 26.2,18.2 11.4,9.2 17.9,39.8 17.9,39.8" fill="#a07c64" fill-opacity="1.0" stroke="#00000000"/>
    <path android:fillAlpha="1.0" d="m329.4,209.5c0,0 -5.6,-3 -1,-12.7 4.6,-9.6 51.2,-19.1 51.2,-19.1l0.6,1.8c0.3,42.9 -50.8,30 -50.8,30" fill="#a07c64" fill-opacity="1.0" stroke="#00000000"/>
    <path android:fillAlpha="1.0" d="m322.1,191.9c-0.5,-0.2 -1,-0.3 -1.5,-0.4 0.5,0.1 1,0.3 1.5,0.4" fill="#a3978f" fill-opacity="1.0" stroke="#00000000"/>
    <path android:fillAlpha="1.0" d="M211.8,245.6 L209.6,240.2c0,0 -1.7,-2.7 -1.7,-5.2 0,-0.9 0.2,-1.8 0.8,-2.5 2.3,-2.8 48.1,-18.4 48.1,-18.4 0,0 4.8,-9.9 10.1,-11.3 5.3,-1.5 30.2,-8.2 30.2,-8.2 0,0 14.9,-3.3 21.4,-3.3l0,0c0.9,0 1.6,0.1 2.1,0.2l0,0c0.5,0.1 1,0.3 1.5,0.4 3.1,0.9 6.8,1.9 8.5,2.4 -1.1,0.9 -1.8,1.7 -2.3,2.6 -2.5,5.2 -2,8.5 -1,10.4 -1.4,0.1 -2.7,0.3 -4.2,0.5 -9.7,1.8 -18,7.4 -27.2,10.7 -6.4,2.4 -13.2,3.5 -19.6,5.9 -21.9,5.7 -43.4,14.6 -64.6,21.2m62.5,-35.5c-1.3,0 -2.9,0.3 -4.7,1.4C264.8,214.2 264.6,218 264.6,218l5.1,1.4c4.8,-1.1 8.1,-8.5 8.1,-8.5 0,0 -1.4,-0.9 -3.6,-0.9" fill="#b89b7d" fill-opacity="1.0" stroke="#00000000"/>
    <path android:fillAlpha="1.0" d="m349.2,185.7c14.1,-4.6 30.2,-7.9 30.4,-8 -0.2,0.1 -16.3,3.3 -30.4,8m30.4,-8l0,0 0,0" fill="#90c8cf" fill-opacity="1.0" stroke="#00000000"/>
    <path android:fillAlpha="1.0" d="m348.6,211.2c-5.7,-2.5 -11.7,-4.1 -18.1,-4.1 -1,0 -2.1,0 -3.1,0.1 -1,-1.9 -1.5,-5.2 1,-10.4 0.4,-0.9 1.2,-1.8 2.3,-2.6 0,0 0,0 0.1,0 3.7,-3.1 10.8,-6 18.5,-8.6 14.1,-4.6 30.2,-7.9 30.4,-8l0,0 0,0 0,0l0.6,1.8c0.2,25 -17.1,31 -31.6,31.7" fill="#b89b7d" fill-opacity="1.0" stroke="#00000000"/>
    <path android:fillAlpha="1.0" d="m269.8,219.4 l-5.1,-1.4c0,0 0.1,-3.8 4.9,-6.6 1.8,-1.1 3.4,-1.4 4.7,-1.4 2.2,0 3.6,0.9 3.6,0.9 0,0 -3.2,7.4 -8.1,8.5" fill="#875e44" fill-opacity="1.0" stroke="#00000000"/>
    <path android:fillAlpha="1.0" d="m226.6,340.2c2.6,-5.1 17.2,-23 33.5,-42.2 -16.3,19.2 -30.9,37.1 -33.5,42.2m52.7,-64.7c1.1,-1.3 2.3,-2.6 3.4,-3.9l0,0c-1.1,1.3 -2.2,2.6 -3.4,3.9" fill="#90c8cf" fill-opacity="1.0" stroke="#00000000"/>
    <path android:fillAlpha="1.0" d="m226.3,481.8c-5.9,-8 -9.8,-14.6 -9.6,-18.1l0,0 0,0 0,0l7.4,-6.7c0.1,8.3 0.8,16.6 2.2,24.8" fill="#b89b7d" fill-opacity="1.0" stroke="#00000000"/>
    <path android:fillAlpha="1.0" d="m216.7,463.7l0,0c0,0 -0.1,-3.3 -0.1,-8 0,-10.2 0.5,-26.9 3.3,-32.1l0,0 0,0c-0.8,-4.6 -8.6,-6.8 -9.9,-13.9 -0.1,-0.4 -0.1,-0.8 -0.1,-1.4 -0,-10.7 10.8,-56.3 16.7,-68.1l0,0c2.6,-5.1 17.2,-23 33.5,-42.2 6.4,-7.5 13,-15.2 19.2,-22.5 1.1,-1.3 2.3,-2.6 3.4,-3.9 5,6.9 6.2,15.9 4.9,25.9l-1.2,4.1c-7.3,36.2 -35.3,66.9 -50.7,99.9 -8.4,18 -11.8,36.7 -11.6,55.5l-7.4,6.7" fill="#b89b7d" fill-opacity="1.0" stroke="#00000000"/>
    <path android:fillAlpha="1.0" d="m650.6,465.6c-0,-0 -0,-0 -0,-0 -2.1,-8.3 -7.8,-27.8 -16.4,-35.5 8.6,7.7 14.3,27.3 16.4,35.5m-228.9,-54.4l0,0 0,0 0,0m-2.2,-0.1c-0,0 -0,0 -0.1,0 0,0 0,0 0.1,0m-0.1,0c-2.4,-0 -5.3,-0.5 -8.6,-1.2 3.3,0.8 6.2,1.2 8.6,1.2m-8.7,-1.3c-0,-0 -0.1,-0 -0.1,-0 0,0 0,0 0.1,0m-0.2,-0.1l-0,0c0,0 0,0 0,0m155.7,-11.2l-0,0l0,0l0,0m-216.6,-12c-3.1,-1.2 -6,-2.4 -8.9,-3.5 -3.8,-4.1 -8.2,-9.2 -11.7,-14 0,-0 -0,-0.1 -0,-0.1 3.6,4.9 7.9,10 11.8,14.1 2.8,1.1 5.8,2.3 8.8,3.5" fill="#90c8cf" fill-opacity="1.0" stroke="#00000000"/>
    <path android:fillAlpha="1.0" d="m454.9,436.3c-21.1,0 -42.4,-4.8 -62.8,-9.8 -33.2,-8 -53.1,-22.8 -60.3,-43.3 7.6,3.2 15.2,6.4 17.2,7.2 0.1,0 0.1,0 0.1,0.1 0.3,0.1 0.4,0.2 0.4,0.2 0,0 -0.2,-0.1 -0.5,-0.2 -1.6,-0.7 -4.8,-3.7 -8.5,-7.6 2.9,1.1 5.9,2.3 8.9,3.5 21,8.5 45.2,19.5 60.9,23.3l0,0c0,0 0.1,0 0.2,0 0,0 0.1,0 0.1,0 0,0 0,0 0.1,0 3.3,0.8 6.2,1.2 8.6,1.2 0,0 0,0 0,0 0,0 0,0 0.1,0 0,0 0.1,0 0.1,0 0.4,0.1 1.1,0.1 2.1,0.1l0,0 0,0 0,0c15.5,0 102.1,-10.7 102.1,-10.7 0,0 28.6,-2 42.4,-2l0,0c2.1,0 3.8,0.1 5.1,0.2 9.6,0.8 36,12.7 36,12.7 0,0 -10.4,12.4 -13.7,22.1 -12.7,-2.8 -26.1,-3.8 -39.7,-3.8 -30.9,0 -63.2,5.2 -92.9,6.5 -2,0.1 -4.1,0.1 -6.1,0.1" fill="#b89b7d" fill-opacity="1.0" stroke="#00000000"/>
    <path android:fillAlpha="1.0" d="m349.6,390.7c0,0 -0.1,-0.1 -0.4,-0.2 -0,-0 -0.1,-0 -0.1,-0.1 0.4,0.1 0.5,0.2 0.5,0.2m-0.5,-0.2c-2.1,-0.9 -9.6,-4 -17.2,-7.2 -1.6,-4.5 -2.5,-9.3 -2.9,-14.3 3.5,4.8 7.8,9.9 11.7,14 3.7,3.9 6.9,6.8 8.5,7.6" fill="#b89b7d" fill-opacity="1.0" stroke="#00000000"/>
    <path android:fillAlpha="1.0" d="m634.1,430.1c-0,-0 -0,-0 -0,-0 0,0 0,0 0,0m-0.1,-0.1c-0,0 -0,-0 -0,-0 0,0 0,0 0,0m-0.2,-0.1l0,0 0,0m-0,-0l0,0 0,0m-0.2,-0.2 l-0,-0 0,0m-0,-0c-0,-0 -0,-0 -0,-0 0,0 0,0 0,0m-0.1,-0c-0,-0 -0,-0 -0.1,-0 0,0 0,0 0.1,0" fill="#90c8cf" fill-opacity="1.0" stroke="#00000000"/>
    <path android:fillAlpha="1.0" d="M650.5,465.6C634.3,447.6 614.8,438.1 593.5,433.5 596.9,423.7 607.3,411.3 607.3,411.3l0,0c0,0 14.8,8.9 26.2,18.2l0,0c0,0 0,0 0.1,0 0,0 0,0 0,0 0,0 0,0 0,0 0,0 0,0 0,0l0,0c0.1,0.1 0.1,0.1 0.2,0.2l0,0c0,0 0,0 0,0l0,0c0.1,0 0.1,0.1 0.1,0.1 0,0 0,0 0,0 0,0 0,0 0,0 0,0 0,0 0,0 0,0 0,0 0,0 8.6,7.7 14.3,27.2 16.4,35.5" fill="#b89b7d" fill-opacity="1.0" stroke="#00000000"/>
    <path android:fillAlpha="1.0" d="M300.4,736 L295.9,610.4 269,543.1c-2.1,-5.3 -6.3,-14.5 -10.4,-23.6 0.5,0.6 1.1,1.1 1.6,1.7l35.7,89.2 4.5,125.5c0,0 0,0 -0,0.1" fill="#90c8cf" fill-opacity="1.0" stroke="#00000000"/>
    <path android:fillAlpha="1.0" d="m260.2,521.2c-0.5,-0.5 -1.1,-1.1 -1.6,-1.7 -2.2,-4.9 -4.3,-9.7 -6,-13.9 2.9,4 5.9,7.8 9.1,11.6l-3.1,0l1.6,4" fill="#b89b7d" fill-opacity="1.0" stroke="#00000000"/>
    <path android:fillAlpha="1.0" d="M300.4,735.9 L295.9,610.4 260.2,521.2 258.6,517.2l3.1,0c4.7,5.5 9.8,10.8 14.8,16.2 6.7,10.7 13.3,21.8 18.2,34.1 21.1,53.4 14.4,116.1 5.7,168.5" fill="#b89b7d" fill-opacity="1.0" stroke="#00000000"/>
    <path android:fillAlpha="1.0" d="m587.6,643.1c-10.8,-7.5 -21.7,-15.2 -29.5,-21.3 7.9,6.1 18.7,13.8 29.5,21.3m-29.5,-21.3c-0,-0 -0,-0 -0.1,-0.1 0,0 0,0 0.1,0.1" fill="#90c8cf" fill-opacity="1.0" stroke="#00000000"/>
    <path android:fillAlpha="1.0" d="m547.7,612.8l0,0 0,0m-0,-0.1l0,0 0,0m-0,-0c-0,0 -0,-0 -0,-0 0,0 0,0 0,0m-0,-0c-0,-0 -0,-0 -0,-0 0,0 0,0 0,0m-0,-0.1c-0.6,-0.7 -1,-1.3 -1.2,-1.7 0.2,0.4 0.6,1 1.2,1.7m-1.2,-1.7l0,-0 0,0m-13.5,-36.1c-3.5,-9.5 -7.3,-20 -10.9,-30.2 0,0 0,0 0,0 3.6,10.2 7.4,20.6 10.9,30.1" fill="#a37659" fill-opacity="1.0" stroke="#00000000"/>
    <path android:fillAlpha="1.0" d="m522,544.6c-0,0 -0,-0 -0,-0l0,0l-0.8,-0.2c-0.3,-1.4 -0.5,-2.8 -0.7,-4.1 0.5,1.4 1,2.9 1.5,4.3m0.3,-62.7c0.1,-0.4 0.2,-0.7 0.3,-1.1 0,0.3 0.1,0.6 0.1,0.9 -0.2,0.1 -0.3,0.2 -0.5,0.2" fill="#b89b7d" fill-opacity="1.0" stroke="#00000000"/>
    <path android:fillAlpha="1.0" d="M614.5,661.3C607,656.3 597.3,649.8 587.6,643.1c-10.8,-7.5 -21.7,-15.2 -29.5,-21.3 0,0 -0,-0 -0,-0 -0,-0 -0,-0 -0.1,-0.1 -4.8,-3.7 -8.5,-6.8 -10.4,-8.9l0,0c-0,-0 -0,-0 -0,-0.1l0,0c-0,-0 -0,-0 -0,-0 -0,0 -0,-0 -0,-0 -0,-0 -0,-0 -0,-0 -0,-0 -0,-0 -0,-0l-0,-0c-0.6,-0.7 -1,-1.3 -1.2,-1.7 0,0 -0,0 -0,-0L546.3,610.9c-0,-0 -0,-0 -0,-0l0,0 0,0c0,0 -6,-15.9 -13.5,-36.1 -3.5,-9.5 -7.3,-20 -10.9,-30.1 -0.5,-1.5 -1,-2.9 -1.5,-4.3 -3.2,-19.4 -3.6,-39.3 1.8,-58.3 0.2,-0.1 0.3,-0.2 0.5,-0.2 7.7,42.9 28.6,88.7 48.5,125.2 12.1,22.3 29.6,35.3 43.3,54.4" fill="#b89b7d" fill-opacity="1.0" stroke="#00000000"/>
    <path android:fillAlpha="1.0" d="m329.8,220.6c0,0 -4.8,-4.2 1.8,-12.6 6.6,-8.4 54.1,-7.7 54.1,-7.7l0.2,1.9c-8.9,41.9 -56.1,18.3 -56.1,18.3" fill="#a07c64" fill-opacity="1.0" stroke="#00000000"/>
    <path android:fillAlpha="1.0" d="m329.6,792.3l-27.1,0l-0.6,-17.7l0,0l0.6,17.7l27.1,0" fill="#44736c" fill-opacity="1.0" stroke="#00000000"/>
    <path android:fillAlpha="1.0" d="m329.6,792.3l-27.1,0l-0.6,-17.7l22.6,0l5.1,17.7" fill="#8f5746" fill-opacity="1.0" stroke="#00000000"/>
    <path android:fillAlpha="1.0" d="m531.4,792.3 l6.1,-17.7l0,0l-6.1,17.7" fill="#44736c" fill-opacity="1.0" stroke="#00000000"/>
    <path android:fillAlpha="1.0" d="m562.5,792.3l-31.1,0l6.1,-17.7l27.9,0l-2.9,17.7" fill="#6e4232" fill-opacity="1.0" stroke="#00000000"/>
    <path android:fillAlpha="1.0" d="m665.4,792.3l-33.6,0 33.6,0l3.2,-17.7l0,0l-3.2,17.7" fill="#44736c" fill-opacity="1.0" stroke="#00000000"/>
    <path android:fillAlpha="1.0" d="m665.4,792.3l-33.6,0l6.7,-17.7l30.1,0l-3.2,17.7" fill="#8f5746" fill-opacity="1.0" stroke="#00000000"/>
</svg>